G04                                                                  *
G04 SOURCE        : LAYO1 PCB.EXE VERSION 10                         *
G04 FORMAT        : GERBER RS-274X, Inch, 2.4, Leading Zero          *
G04 TITLE         : CNC3018SWITCHER_SOLDERMASK TOP                   *
G04 TIME          : Thursday, May 11, 2023  21:45:25                 *
G04                                                                  *
G04 Board width   : 120.000 mm. =  4.7244 inch                       *
G04 Board height  : 100.000 mm. =  3.9370 inch                       *
G04 Board offset  :   0.000 mm. =  0.0000 inch                       *
G04 Board offset  :   0.000 mm. =  0.0000 inch                       *
G04                                                                  *
G04 Apertures:                                                       *
G04       Type          X       Y             X       Y        Used  *
G04                      Inches                Metric                *
G04 D10   Round       0.1614  0.1614        4.100   4.100         4  *
G04 D11   Round       0.0866  0.0866        2.200   2.200        12  *
G04 D12   Round       0.0701  0.0701        1.780   1.780        26  *
G04 D13   Rectangle   0.0866  0.1063        2.200   2.700         8  *
G04 D14   Square      0.1260  0.1260        3.200   3.200         4  *
G04 D15   Round       0.0953  0.0953        2.420   2.420        28  *
G04 D16   Rectangle   0.0866  0.0866        2.200   2.200        11  *
G04 D17   Square      0.0866  0.0866        2.200   2.200        12  *
G04 D18   Draw        0.0157  0.0157        0.400   0.400        32  *
G04                                                                  *
%FSLAX24Y24*
MOIN*
SFA1.0B1.0*%
%ADD10C,0.1614*%
%ADD11C,0.0866*%
%ADD12C,0.0701*%
%ADD13R,0.1063X0.0866*%
%ADD14R,0.1260X0.1260*%
%ADD15C,0.0953*%
%ADD16R,0.0866X0.0866*%
%ADD17R,0.0866X0.0866*%
%ADD18C,0.0157*%
%LNSOLDERMASK TOP*%
G54D10*
X007000Y033370D03*
X007000Y006870D03*
X040000Y006870D03*
X040000Y033370D03*
G54D11*
X029000Y025120D03*
X029000Y023370D03*
X019500Y028370D03*
X019500Y025870D03*
X010500Y024870D03*
X010500Y017620D03*
X016000Y018370D03*
X011500Y018370D03*
X011500Y019120D03*
X011500Y022620D03*
X027250Y025870D03*
X027250Y023370D03*
G54D12*
X012500Y029120D03*
X012500Y031120D03*
X019500Y030120D03*
X019500Y031120D03*
X031000Y024120D03*
X031000Y025120D03*
X013000Y019620D03*
X014000Y019620D03*
X015000Y019620D03*
X016000Y019620D03*
X017000Y019620D03*
X018000Y019620D03*
X019000Y019620D03*
X020000Y019620D03*
X021000Y019620D03*
X021000Y022620D03*
X020000Y022620D03*
X019000Y022620D03*
X018000Y022620D03*
X017000Y022620D03*
X016000Y022620D03*
X015000Y022620D03*
X014000Y022620D03*
X013000Y022620D03*
X017000Y024620D03*
X015000Y024620D03*
G54D13*
X012500Y026620D03*
X012500Y025620D03*
X011500Y015620D03*
X011500Y016620D03*
X016000Y015620D03*
X016000Y016620D03*
X020500Y015620D03*
X020500Y016620D03*
G54D14*
X037000Y030870D03*
X037000Y029308D03*
X037000Y026870D03*
X037000Y025308D03*
G54D15*
X035500Y009120D03*
X033531Y009120D03*
X029500Y009120D03*
X027531Y009120D03*
X024000Y027120D03*
X024000Y030120D03*
X032000Y027120D03*
X030000Y027120D03*
X034000Y027120D03*
X032000Y030120D03*
X030000Y030120D03*
X034000Y030120D03*
X024000Y013120D03*
X024000Y016120D03*
X032000Y013120D03*
X030000Y013120D03*
X034000Y013120D03*
X032000Y016120D03*
X030000Y016120D03*
X034000Y016120D03*
X024000Y019120D03*
X024000Y022120D03*
X032000Y019120D03*
X030000Y019120D03*
X034000Y019120D03*
X032000Y022120D03*
X030000Y022120D03*
X034000Y022120D03*
G54D16*
X036500Y020620D03*
X036500Y021620D03*
X036500Y022620D03*
X036500Y015120D03*
X036500Y016120D03*
X036500Y017120D03*
X009500Y019620D03*
X009500Y020620D03*
X009500Y021620D03*
X009500Y022620D03*
X009500Y023620D03*
G54D17*
X012000Y012620D03*
X012000Y009620D03*
X010250Y009620D03*
X010250Y012620D03*
X016500Y012620D03*
X016500Y009620D03*
X014750Y009620D03*
X014750Y012620D03*
X021000Y012620D03*
X021000Y009620D03*
X019250Y009620D03*
X019250Y012620D03*
G54D18*
X005000Y034995D02*
X005000Y034370D01*
X005375Y035370D02*
X006000Y035370D01*
X005000Y035745D02*
X005000Y036370D01*
X004625Y035370D02*
X004000Y035370D01*
X042000Y034995D02*
X042000Y034370D01*
X042375Y035370D02*
X043000Y035370D01*
X042000Y035745D02*
X042000Y036370D01*
X041625Y035370D02*
X041000Y035370D01*
X042000Y004245D02*
X042000Y003620D01*
X042375Y004620D02*
X043000Y004620D01*
X042000Y004995D02*
X042000Y005620D01*
X041625Y004620D02*
X041000Y004620D01*
X005000Y004245D02*
X005000Y003620D01*
X005375Y004620D02*
X006000Y004620D01*
X005000Y004995D02*
X005000Y005620D01*
X004625Y004620D02*
X004000Y004620D01*
M02*
