G04                                                                  *
G04 SOURCE        : LAYO1 PCB.EXE VERSION 10                         *
G04 FORMAT        : GERBER RS-274X, Inch, 2.4, Leading Zero          *
G04 TITLE         : CNC3018SWITCHER_SIGNAL BOTTOM                    *
G04 TIME          : Thursday, May 11, 2023  21:45:24                 *
G04                                                                  *
G04 Board width   : 120.000 mm. =  4.7244 inch                       *
G04 Board height  : 100.000 mm. =  3.9370 inch                       *
G04 Board offset  :   0.000 mm. =  0.0000 inch                       *
G04 Board offset  :   0.000 mm. =  0.0000 inch                       *
G04                                                                  *
G04 Apertures:                                                       *
G04       Type          X       Y             X       Y        Used  *
G04                      Inches                Metric                *
G04 D10   Round       0.1535  0.1535        3.900   3.900         4  *
G04 D11   Draw        0.0394  0.0394        1.000   1.000       328  *
G04 D12   Draw        0.0591  0.0591        1.500   1.500        55  *
G04 D13   Draw        0.0787  0.0787        2.000   2.000        38  *
G04 D14   Round       0.0787  0.0787        2.000   2.000        12  *
G04 D15   Round       0.0622  0.0622        1.580   1.580        26  *
G04 D16   Rectangle   0.0669  0.1299        1.700   3.300         2  *
G04 D17   Rectangle   0.0441  0.0669        1.120   1.700        24  *
G04 D18   Rectangle   0.0441  0.0669        1.120   1.700        14  *
G04 D19   Rectangle   0.0787  0.0984        2.000   2.500         8  *
G04 D20   Square      0.1181  0.1181        3.000   3.000         4  *
G04 D21   Round       0.0874  0.0874        2.220   2.220        28  *
G04 D22   Rectangle   0.0787  0.0787        2.000   2.000        11  *
G04 D23   Rectangle   0.0283  0.0362        0.720   0.920         9  *
G04 D24   Square      0.0787  0.0787        2.000   2.000        12  *
G04 D25   Rectangle   0.0299  0.0472        0.760   1.200         2  *
G04 D26   Rectangle   0.0299  0.0717        0.760   1.820         1  *
G04 D27   Draw        0.0157  0.0157        0.400   0.400        32  *
G04 D28   Draw        0.0119  0.0119        0.301   0.301      4233  *
G04                                                                  *
%FSLAX24Y24*
MOIN*
SFA1.0B1.0*%
%ADD10C,0.1535*%
%ADD11C,0.0394*%
%ADD12C,0.0591*%
%ADD13C,0.0787*%
%ADD14C,0.0787*%
%ADD15C,0.0622*%
%ADD16R,0.1299X0.0669*%
%ADD17R,0.0669X0.0441*%
%ADD18R,0.0441X0.0669*%
%ADD19R,0.0984X0.0787*%
%ADD20R,0.1181X0.1181*%
%ADD21C,0.0874*%
%ADD22R,0.0787X0.0787*%
%ADD23R,0.0283X0.0362*%
%ADD24R,0.0787X0.0787*%
%ADD25R,0.0299X0.0472*%
%ADD26R,0.0299X0.0717*%
%ADD27C,0.0157*%
%ADD28C,0.0119*%
%LNSIGNAL BOTTOM*%
G54D10*
X007000Y033370D03*
X007000Y006870D03*
X040000Y006870D03*
X040000Y033370D03*
G54D11*
X020000Y022620D02*
X020000Y023541D01*
X021000Y022620D02*
X022500Y021120D01*
X022500Y021199D01*
X024000Y015183D02*
X024000Y016120D01*
X024000Y016120D02*
X024000Y017207D01*
X024000Y029183D02*
X024000Y030120D01*
X022500Y028707D02*
X022587Y028620D01*
X023250Y028620D01*
X023750Y029120D01*
X024000Y021183D02*
X024000Y022120D01*
X022500Y024207D02*
X022500Y023620D01*
X024000Y022120D01*
X036500Y016120D02*
X036000Y016120D01*
X035750Y016370D01*
X035750Y017620D01*
X035250Y018120D01*
X033500Y018120D01*
X033000Y018620D01*
X033000Y021370D01*
X032250Y022120D01*
X032000Y022120D01*
X034000Y022120D02*
X034500Y021620D01*
X036500Y021620D01*
X035063Y023620D02*
X035250Y023433D01*
X035250Y021620D01*
X019921Y027120D02*
X019000Y027120D01*
X018000Y026120D01*
X014250Y026120D01*
X014000Y025870D01*
X014000Y022620D01*
X013000Y022620D02*
X013000Y023620D01*
X012500Y024120D01*
X012500Y025620D01*
X012500Y026620D02*
X012500Y027620D01*
X015937Y027620D01*
X016500Y009620D02*
X016500Y012620D01*
X019000Y019620D02*
X019000Y017870D01*
X021500Y017870D01*
X022000Y017370D01*
X022000Y014620D01*
X021750Y014370D01*
X019250Y014370D01*
X018750Y013870D01*
X016750Y013870D01*
X016500Y013620D01*
X016500Y012620D01*
X021000Y009620D02*
X021000Y012620D01*
X021750Y012620D02*
X021000Y012620D01*
X021750Y012620D02*
X022250Y013120D01*
X022250Y013870D01*
X022500Y014120D01*
X022500Y017620D01*
X021500Y018620D01*
X020250Y018620D01*
X020000Y018870D01*
X020000Y019620D01*
X024500Y024041D02*
X026000Y024041D01*
X026000Y024041D02*
X026079Y024120D01*
X031000Y024120D01*
X021000Y019620D02*
X021000Y020620D01*
X025000Y020620D01*
X025000Y024120D01*
X031921Y023620D02*
X031000Y023620D01*
X031000Y024120D01*
X033063Y023620D02*
X033921Y023620D01*
X012000Y012870D02*
X012000Y012620D01*
X018000Y019620D02*
X018000Y017620D01*
X018250Y017370D01*
X021250Y017370D01*
X021500Y017120D01*
X021500Y015120D01*
X021250Y014870D01*
X018750Y014870D01*
X018250Y014370D01*
X013250Y014370D01*
X012000Y013120D01*
X012000Y012620D01*
X017000Y024620D02*
X017000Y025557D01*
X016000Y022620D02*
X016000Y024620D01*
X017000Y024620D01*
X015000Y025557D02*
X015000Y024620D01*
X015000Y022620D02*
X015000Y024620D01*
X016000Y016620D02*
X016000Y016620D01*
X014000Y016620D01*
X014000Y019620D01*
X011500Y016620D02*
X013000Y016620D01*
X013000Y019620D01*
X020500Y016620D02*
X020500Y016620D01*
X017000Y016620D01*
X017000Y017370D01*
X015250Y017370D01*
X015000Y017620D01*
X015000Y019620D01*
X019063Y015620D02*
X020500Y015620D01*
X014563Y015620D02*
X016000Y015620D01*
X010000Y015683D02*
X010563Y015620D01*
X011500Y015620D01*
X016500Y027699D02*
X016504Y027703D01*
X016504Y030484D01*
X014000Y031120D02*
X012500Y031120D01*
X016500Y031120D02*
X016579Y031199D01*
X018000Y031199D01*
X018000Y031199D02*
X018079Y031120D01*
X019500Y031120D01*
X016500Y031120D02*
X016398Y031018D01*
X014000Y031018D01*
X016504Y030484D02*
X016500Y030488D01*
X016500Y031120D01*
X015000Y026699D02*
X017000Y026699D01*
X016500Y026699D02*
X016500Y027870D01*
X022874Y029494D02*
X023000Y029620D01*
X023000Y031120D01*
X019500Y031120D01*
X022874Y024994D02*
X023000Y025120D01*
X023000Y025870D01*
X020500Y025870D01*
X020500Y031120D01*
X022875Y024995D02*
X023063Y025183D01*
X026000Y025183D01*
X026000Y025183D02*
X026063Y025120D01*
X031000Y025120D01*
X010250Y009620D02*
X010250Y012620D01*
X014750Y009620D02*
X014750Y012620D01*
X019250Y009620D02*
X019250Y012620D01*
X009500Y019620D02*
X008250Y019620D01*
X008250Y012620D01*
X010250Y012620D01*
X019500Y008620D02*
X019500Y008620D01*
X010250Y008620D01*
X010250Y009620D01*
X014750Y008620D02*
X014750Y009620D01*
X008250Y019620D02*
X008250Y028370D01*
X016500Y028370D01*
X024374Y017994D02*
X025000Y017368D01*
X025000Y014620D01*
X023250Y014620D01*
X023000Y014370D01*
X023000Y008620D01*
X019250Y008620D01*
X019250Y009620D01*
X017000Y019620D02*
X017000Y020370D01*
X011500Y020370D01*
X010750Y019620D01*
X009500Y019620D01*
X017921Y015620D02*
X017750Y015449D01*
X017750Y014870D01*
X013500Y014870D02*
X013421Y014949D01*
X013421Y015620D01*
X017067Y030358D02*
X017063Y030354D01*
X017063Y029120D01*
X017063Y030120D02*
X017126Y030057D01*
X018000Y030057D01*
X018000Y030057D02*
X018063Y030120D01*
X019500Y030120D01*
X017079Y027620D02*
X017063Y027636D01*
X017063Y029120D01*
X009500Y023620D02*
X010079Y023699D01*
X010500Y023699D01*
X017750Y014870D02*
X013500Y014870D01*
X010000Y014541D02*
X010579Y014620D01*
X012250Y014620D01*
X012500Y014870D01*
X013500Y014870D01*
X019500Y030120D02*
X019500Y028370D01*
X019500Y025870D02*
X018250Y024620D01*
X018250Y023620D01*
X017000Y023620D01*
X017000Y022620D01*
X017000Y022620D02*
X017000Y022120D01*
X016750Y021870D01*
X012500Y021870D01*
X012250Y022120D01*
X012250Y023370D01*
X011921Y023699D01*
X010500Y023699D01*
X009500Y023620D02*
X009500Y024870D01*
X010500Y024870D01*
X010500Y017620D02*
X009250Y017620D01*
X009000Y017370D01*
X009000Y014620D01*
X009079Y014541D01*
X010000Y014541D01*
X022126Y029494D02*
X022000Y029620D01*
X021250Y029620D01*
X021063Y029433D01*
X021063Y027120D01*
X022500Y020057D02*
X022500Y019120D01*
X023626Y017994D01*
X023626Y017994D01*
X020000Y024683D02*
X020311Y024994D01*
X022126Y024994D01*
X018000Y022620D02*
X018000Y021620D01*
X017750Y021370D01*
X012000Y021370D01*
X011750Y021620D01*
X009500Y021620D01*
X019000Y022620D02*
X019000Y020870D01*
X010750Y020870D01*
X010500Y020620D01*
X009500Y020620D01*
X009500Y022620D02*
X010063Y022557D01*
X010500Y022557D01*
X016000Y019620D02*
X016000Y018370D01*
X011500Y018370D02*
X011500Y019120D01*
X011500Y022620D02*
X011437Y022557D01*
X010500Y022557D01*
X015941Y030358D02*
X015921Y030338D01*
X015921Y029120D01*
X015921Y029120D02*
X015795Y029246D01*
X014000Y029246D01*
X014000Y029246D02*
X013874Y029120D01*
X012500Y029120D01*
X024000Y028041D02*
X024000Y027120D01*
X036500Y020620D02*
X037500Y020620D01*
X011250Y032370D02*
X011250Y029120D01*
X012500Y029120D01*
X026000Y032370D02*
X026000Y027120D01*
X024000Y027120D01*
X026000Y013120D02*
X024000Y013120D01*
X024000Y019120D02*
X026000Y019120D01*
X024000Y019120D02*
X024000Y020041D01*
X024000Y013120D02*
X024000Y014041D01*
X026000Y027120D02*
X027250Y027120D01*
X027250Y025870D01*
X026000Y013120D02*
X026000Y019120D01*
X026000Y019120D02*
X026000Y019120D01*
X027250Y019120D01*
X027250Y023370D01*
X011250Y032370D02*
X036750Y032370D01*
X036750Y032370D02*
X038000Y032370D01*
X038000Y020620D01*
X037500Y020620D01*
G54D12*
X032000Y030120D02*
X032000Y029620D01*
X033000Y028620D01*
X033000Y027120D01*
X033000Y027120D02*
X033000Y026120D01*
X035000Y026120D01*
X035750Y026870D01*
X037000Y026870D01*
X036250Y025370D02*
X032250Y025370D01*
X032000Y025620D01*
X032000Y027120D01*
X036250Y025370D02*
X036313Y025308D01*
X037000Y025308D01*
X032000Y019120D02*
X032000Y017870D01*
X032750Y017120D01*
X034750Y017120D01*
X035000Y016870D01*
X035000Y015870D01*
X035750Y015120D01*
X036500Y015120D01*
X022250Y008120D02*
X022250Y008620D01*
X037500Y017120D02*
X036500Y017120D01*
X031750Y024620D02*
X031250Y025120D01*
X031000Y025120D01*
X031000Y025120D02*
X029000Y025120D01*
X029000Y023370D02*
X028500Y023370D01*
X028500Y013870D01*
X025500Y010870D01*
X025500Y008120D01*
X022250Y008620D02*
X010250Y008620D01*
X010250Y009620D01*
X022250Y008120D02*
X036500Y008120D01*
X036750Y008370D01*
X036750Y009370D01*
X037250Y009870D01*
X037500Y009870D01*
X037500Y017120D01*
X031750Y024620D02*
X035750Y024620D01*
X036500Y023870D01*
X036500Y022620D01*
X036500Y020620D02*
X036500Y019120D01*
X034000Y019120D01*
G54D13*
X032000Y013120D02*
X031250Y013120D01*
X031250Y012370D01*
X029500Y010620D01*
X028250Y010620D01*
X027531Y009902D01*
X027531Y009120D01*
X034000Y016120D02*
X034000Y014870D01*
X034500Y014370D01*
X035750Y014120D01*
X035750Y010370D01*
X035500Y010120D01*
X035500Y009120D01*
X033531Y009120D02*
X034000Y009589D01*
X034000Y013120D01*
X034000Y030120D02*
X034750Y030870D01*
X037000Y030870D01*
X034000Y027120D02*
X034000Y028620D01*
X035500Y028620D01*
X036188Y029308D01*
X037000Y029308D01*
X029500Y009120D02*
X031750Y011370D01*
X032250Y011370D01*
X033000Y012120D01*
X033000Y013870D01*
X032000Y014870D01*
X032000Y016120D01*
X016500Y012620D02*
X016500Y009620D01*
X021000Y012620D02*
X021000Y009620D01*
X012000Y012870D02*
X012000Y009620D01*
G54D14*
X029000Y025120D03*
X029000Y023370D03*
X019500Y028370D03*
X019500Y025870D03*
X010500Y024870D03*
X010500Y017620D03*
X016000Y018370D03*
X011500Y018370D03*
X011500Y019120D03*
X011500Y022620D03*
X027250Y025870D03*
X027250Y023370D03*
G54D15*
X012500Y029120D03*
X012500Y031120D03*
X019500Y030120D03*
X019500Y031120D03*
X031000Y024120D03*
X031000Y025120D03*
X013000Y019620D03*
X014000Y019620D03*
X015000Y019620D03*
X016000Y019620D03*
X017000Y019620D03*
X018000Y019620D03*
X019000Y019620D03*
X020000Y019620D03*
X021000Y019620D03*
X021000Y022620D03*
X020000Y022620D03*
X019000Y022620D03*
X018000Y022620D03*
X017000Y022620D03*
X016000Y022620D03*
X015000Y022620D03*
X014000Y022620D03*
X013000Y022620D03*
X017000Y024620D03*
X015000Y024620D03*
G54D16*
X014000Y029246D03*
X014000Y031018D03*
G54D17*
X018000Y030057D03*
X018000Y031199D03*
X015000Y025557D03*
X015000Y026699D03*
X017000Y025557D03*
X017000Y026699D03*
X024000Y029183D03*
X024000Y028041D03*
X024000Y015183D03*
X024000Y014041D03*
X024000Y021183D03*
X024000Y020041D03*
X024500Y025183D03*
X024500Y024041D03*
X022500Y020057D03*
X022500Y021199D03*
X020000Y024683D03*
X020000Y023541D03*
X010000Y015683D03*
X010000Y014541D03*
X010500Y022557D03*
X010500Y023699D03*
X026000Y025183D03*
X026000Y024041D03*
G54D18*
X017063Y029120D03*
X015921Y029120D03*
X033063Y023620D03*
X031921Y023620D03*
X021063Y027120D03*
X019921Y027120D03*
X015937Y027620D03*
X017079Y027620D03*
X014563Y015620D03*
X013421Y015620D03*
X019063Y015620D03*
X017921Y015620D03*
X035063Y023620D03*
X033921Y023620D03*
G54D19*
X012500Y026620D03*
X012500Y025620D03*
X011500Y015620D03*
X011500Y016620D03*
X016000Y015620D03*
X016000Y016620D03*
X020500Y015620D03*
X020500Y016620D03*
G54D20*
X037000Y030870D03*
X037000Y029308D03*
X037000Y026870D03*
X037000Y025308D03*
G54D21*
X035500Y009120D03*
X033531Y009120D03*
X029500Y009120D03*
X027531Y009120D03*
X024000Y027120D03*
X024000Y030120D03*
X032000Y027120D03*
X030000Y027120D03*
X034000Y027120D03*
X032000Y030120D03*
X030000Y030120D03*
X034000Y030120D03*
X024000Y013120D03*
X024000Y016120D03*
X032000Y013120D03*
X030000Y013120D03*
X034000Y013120D03*
X032000Y016120D03*
X030000Y016120D03*
X034000Y016120D03*
X024000Y019120D03*
X024000Y022120D03*
X032000Y019120D03*
X030000Y019120D03*
X034000Y019120D03*
X032000Y022120D03*
X030000Y022120D03*
X034000Y022120D03*
G54D22*
X036500Y020620D03*
X036500Y021620D03*
X036500Y022620D03*
X036500Y015120D03*
X036500Y016120D03*
X036500Y017120D03*
X009500Y019620D03*
X009500Y020620D03*
X009500Y021620D03*
X009500Y022620D03*
X009500Y023620D03*
G54D23*
X022126Y029494D03*
X022874Y029494D03*
X022500Y028707D03*
X023626Y017994D03*
X024374Y017994D03*
X024000Y017207D03*
X022126Y024994D03*
X022874Y024994D03*
X022500Y024207D03*
G54D24*
X012000Y012620D03*
X012000Y009620D03*
X010250Y009620D03*
X010250Y012620D03*
X016500Y012620D03*
X016500Y009620D03*
X014750Y009620D03*
X014750Y012620D03*
X021000Y012620D03*
X021000Y009620D03*
X019250Y009620D03*
X019250Y012620D03*
G54D25*
X017067Y030358D03*
X015941Y030358D03*
G54D26*
X016504Y030484D03*
G54D27*
X004000Y035370D02*
X004875Y035370D01*
X005000Y035245D02*
X005000Y034370D01*
X005125Y035370D02*
X006000Y035370D01*
X005000Y035495D02*
X005000Y036370D01*
X041000Y035370D02*
X041875Y035370D01*
X042000Y035245D02*
X042000Y034370D01*
X042125Y035370D02*
X043000Y035370D01*
X042000Y035495D02*
X042000Y036370D01*
X041000Y004620D02*
X041875Y004620D01*
X042000Y004495D02*
X042000Y003620D01*
X042125Y004620D02*
X043000Y004620D01*
X042000Y004745D02*
X042000Y005620D01*
X004000Y004620D02*
X004875Y004620D01*
X005000Y004495D02*
X005000Y003620D01*
X005125Y004620D02*
X006000Y004620D01*
X005000Y004745D02*
X005000Y005620D01*
G54D28*
X025500Y011811D02*
X025515Y011813D01*
X025530Y011819D01*
X025542Y011828D01*
X026792Y013078D01*
X026801Y013090D01*
X026807Y013105D01*
X026809Y013120D01*
X026809Y018561D01*
X028000Y018561D01*
X028015Y018563D01*
X028030Y018569D01*
X028042Y018578D01*
X028051Y018590D01*
X028057Y018605D01*
X028059Y018620D01*
X028059Y023561D01*
X030191Y023561D01*
X030191Y022929D01*
X029000Y022929D01*
X028985Y022927D01*
X028970Y022921D01*
X028958Y022912D01*
X028949Y022900D01*
X028943Y022885D01*
X028941Y022870D01*
X028941Y013645D01*
X026458Y011162D01*
X026449Y011150D01*
X026443Y011135D01*
X026441Y011120D01*
X026441Y008370D01*
X026443Y008355D01*
X026449Y008340D01*
X026458Y008328D01*
X026470Y008319D01*
X026485Y008313D01*
X026500Y008311D01*
X036500Y008311D01*
X036515Y008313D01*
X036530Y008319D01*
X036542Y008328D01*
X036551Y008340D01*
X036557Y008355D01*
X036559Y008370D01*
X036559Y012561D01*
X037250Y012561D01*
X037265Y012563D01*
X037280Y012569D01*
X037292Y012578D01*
X037301Y012590D01*
X037307Y012605D01*
X037309Y012620D01*
X037309Y016870D01*
X037307Y016885D01*
X037301Y016900D01*
X037292Y016912D01*
X037280Y016921D01*
X037265Y016927D01*
X037250Y016929D01*
X037071Y016929D01*
X037071Y017120D01*
X036500Y017120D01*
X036500Y016929D01*
X036500Y016929D01*
X036500Y017120D01*
X036309Y017120D01*
X036309Y017120D01*
X036500Y017120D01*
X036500Y017692D01*
X036309Y017692D01*
X036309Y018061D01*
X038941Y018061D01*
X038941Y007679D01*
X008059Y007679D01*
X008059Y028561D01*
X011941Y028561D01*
X011941Y027270D01*
X011752Y027270D01*
X011752Y025679D01*
X008750Y025679D01*
X008735Y025677D01*
X008720Y025671D01*
X008708Y025662D01*
X008699Y025650D01*
X008693Y025635D01*
X008691Y025620D01*
X008691Y019870D01*
X008693Y019855D01*
X008699Y019840D01*
X008708Y019828D01*
X008720Y019819D01*
X008735Y019813D01*
X008750Y019811D01*
X008929Y019811D01*
X008929Y019620D01*
X009500Y019620D01*
X009500Y019811D01*
X009500Y019811D01*
X009500Y019620D01*
X010071Y019620D01*
X010071Y019811D01*
X010441Y019811D01*
X010441Y018679D01*
X008500Y018679D01*
X008485Y018677D01*
X008470Y018671D01*
X008458Y018662D01*
X008449Y018650D01*
X008443Y018635D01*
X008441Y018620D01*
X008441Y013120D01*
X008443Y013105D01*
X008449Y013090D01*
X008458Y013078D01*
X008470Y013069D01*
X008485Y013063D01*
X008500Y013061D01*
X009679Y013061D01*
X009679Y012620D01*
X010250Y012620D01*
X010250Y013061D01*
X010250Y013061D01*
X010250Y012620D01*
X010821Y012620D01*
X010821Y013061D01*
X010941Y013061D01*
X010941Y008870D01*
X010943Y008855D01*
X010949Y008840D01*
X010958Y008828D01*
X010970Y008819D01*
X010985Y008813D01*
X011000Y008811D01*
X013500Y008811D01*
X013515Y008813D01*
X013530Y008819D01*
X013542Y008828D01*
X013551Y008840D01*
X013557Y008855D01*
X013559Y008870D01*
X013559Y013061D01*
X014179Y013061D01*
X014179Y012620D01*
X014750Y012620D01*
X014750Y013061D01*
X014750Y013061D01*
X014750Y012620D01*
X015321Y012620D01*
X015321Y013061D01*
X015441Y013061D01*
X015441Y008870D01*
X015443Y008855D01*
X015449Y008840D01*
X015458Y008828D01*
X015470Y008819D01*
X015485Y008813D01*
X015500Y008811D01*
X017750Y008811D01*
X017765Y008813D01*
X017780Y008819D01*
X017792Y008828D01*
X017801Y008840D01*
X017807Y008855D01*
X017809Y008870D01*
X017809Y013061D01*
X018679Y013061D01*
X018679Y012620D01*
X019250Y012620D01*
X019250Y013061D01*
X019250Y013061D01*
X019250Y012620D01*
X019821Y012620D01*
X019821Y013061D01*
X019941Y013061D01*
X019941Y008870D01*
X019943Y008855D01*
X019949Y008840D01*
X019958Y008828D01*
X019970Y008819D01*
X019985Y008813D01*
X020000Y008811D01*
X022750Y008811D01*
X022765Y008813D01*
X022780Y008819D01*
X022792Y008828D01*
X022801Y008840D01*
X022807Y008855D01*
X022809Y008870D01*
X022809Y013789D01*
X022820Y013800D01*
X022892Y013894D01*
X022938Y014003D01*
X022953Y014120D01*
X022953Y014561D01*
X023191Y014561D01*
X023191Y011870D01*
X023193Y011855D01*
X023199Y011840D01*
X023208Y011828D01*
X023220Y011819D01*
X023235Y011813D01*
X023250Y011811D01*
X025500Y011811D01*
X019821Y010192D02*
X019250Y010192D01*
X019250Y009620D01*
X019821Y009620D01*
X019821Y010192D01*
X019821Y009620D02*
X019250Y009620D01*
X019250Y009049D01*
X019821Y009049D01*
X019821Y009620D01*
X019821Y012049D02*
X019821Y012620D01*
X019250Y012620D01*
X019250Y012049D01*
X019821Y012049D01*
X019250Y010192D02*
X018679Y010192D01*
X018679Y009620D01*
X019250Y009620D01*
X019250Y010192D01*
X019250Y009620D02*
X018679Y009620D01*
X018679Y009049D01*
X019250Y009049D01*
X019250Y009620D01*
X019250Y012049D02*
X019250Y012620D01*
X018679Y012620D01*
X018679Y012049D01*
X019250Y012049D01*
X015321Y010192D02*
X014750Y010192D01*
X014750Y009620D01*
X015321Y009620D01*
X015321Y010192D01*
X015321Y009620D02*
X014750Y009620D01*
X014750Y009049D01*
X015321Y009049D01*
X015321Y009620D01*
X015321Y012049D02*
X015321Y012620D01*
X014750Y012620D01*
X014750Y012049D01*
X015321Y012049D01*
X014750Y010192D02*
X014179Y010192D01*
X014179Y009620D01*
X014750Y009620D01*
X014750Y010192D01*
X014750Y009620D02*
X014179Y009620D01*
X014179Y009049D01*
X014750Y009049D01*
X014750Y009620D01*
X014750Y012049D02*
X014750Y012620D01*
X014179Y012620D01*
X014179Y012049D01*
X014750Y012049D01*
X037071Y017120D02*
X037071Y017692D01*
X036500Y017692D01*
X036500Y017120D01*
X037071Y017120D01*
X010821Y010192D02*
X010250Y010192D01*
X010250Y009620D01*
X010821Y009620D01*
X010821Y010192D01*
X010821Y009620D02*
X010250Y009620D01*
X010250Y009049D01*
X010821Y009049D01*
X010821Y009620D01*
X010821Y012049D02*
X010821Y012620D01*
X010250Y012620D01*
X010250Y012049D01*
X010821Y012049D01*
X010250Y010192D02*
X009679Y010192D01*
X009679Y009620D01*
X010250Y009620D01*
X010250Y010192D01*
X010250Y009620D02*
X009679Y009620D01*
X009679Y009049D01*
X010250Y009049D01*
X010250Y009620D01*
X010250Y012049D02*
X010250Y012620D01*
X009679Y012620D01*
X009679Y012049D01*
X010250Y012049D01*
X010071Y019049D02*
X010071Y019620D01*
X009500Y019620D01*
X009500Y019049D01*
X010071Y019049D01*
X009500Y019049D02*
X009500Y019620D01*
X008929Y019620D01*
X008929Y019049D01*
X009500Y019049D01*
X008059Y028561D02*
X011941Y028561D01*
X008059Y028482D02*
X011941Y028482D01*
X008059Y028403D02*
X011941Y028403D01*
X008059Y028323D02*
X011941Y028323D01*
X008059Y028244D02*
X011941Y028244D01*
X008059Y028165D02*
X011941Y028165D01*
X008059Y028086D02*
X011941Y028086D01*
X008059Y028007D02*
X011941Y028007D01*
X008059Y027928D02*
X011941Y027928D01*
X008059Y027849D02*
X011941Y027849D01*
X008059Y027769D02*
X011941Y027769D01*
X008059Y027690D02*
X011941Y027690D01*
X008059Y027611D02*
X011941Y027611D01*
X008059Y027532D02*
X011941Y027532D01*
X008059Y027453D02*
X011941Y027453D01*
X008059Y027374D02*
X011941Y027374D01*
X008059Y027295D02*
X011941Y027295D01*
X008059Y027216D02*
X011752Y027216D01*
X008059Y027136D02*
X011752Y027136D01*
X008059Y027057D02*
X011752Y027057D01*
X008059Y026978D02*
X011752Y026978D01*
X008059Y026899D02*
X011752Y026899D01*
X008059Y026820D02*
X011752Y026820D01*
X008059Y026741D02*
X011752Y026741D01*
X008059Y026662D02*
X011752Y026662D01*
X008059Y026582D02*
X011752Y026582D01*
X008059Y026503D02*
X011752Y026503D01*
X008059Y026424D02*
X011752Y026424D01*
X008059Y026345D02*
X011752Y026345D01*
X008059Y026266D02*
X011752Y026266D01*
X008059Y026187D02*
X011752Y026187D01*
X008059Y026108D02*
X011752Y026108D01*
X008059Y026029D02*
X011752Y026029D01*
X008059Y025949D02*
X011752Y025949D01*
X008059Y025870D02*
X011752Y025870D01*
X008059Y025791D02*
X011752Y025791D01*
X008059Y025712D02*
X011752Y025712D01*
X008059Y025633D02*
X008692Y025633D01*
X008059Y025554D02*
X008691Y025554D01*
X008059Y025475D02*
X008691Y025475D01*
X008059Y025395D02*
X008691Y025395D01*
X008059Y025316D02*
X008691Y025316D01*
X008059Y025237D02*
X008691Y025237D01*
X008059Y025158D02*
X008691Y025158D01*
X008059Y025079D02*
X008691Y025079D01*
X008059Y025000D02*
X008691Y025000D01*
X008059Y024921D02*
X008691Y024921D01*
X008059Y024842D02*
X008691Y024842D01*
X008059Y024762D02*
X008691Y024762D01*
X008059Y024683D02*
X008691Y024683D01*
X008059Y024604D02*
X008691Y024604D01*
X008059Y024525D02*
X008691Y024525D01*
X008059Y024446D02*
X008691Y024446D01*
X008059Y024367D02*
X008691Y024367D01*
X008059Y024288D02*
X008691Y024288D01*
X008059Y024208D02*
X008691Y024208D01*
X008059Y024129D02*
X008691Y024129D01*
X008059Y024050D02*
X008691Y024050D01*
X008059Y023971D02*
X008691Y023971D01*
X008059Y023892D02*
X008691Y023892D01*
X008059Y023813D02*
X008691Y023813D01*
X008059Y023734D02*
X008691Y023734D01*
X008059Y023655D02*
X008691Y023655D01*
X008059Y023575D02*
X008691Y023575D01*
X008059Y023496D02*
X008691Y023496D01*
X028059Y023496D02*
X030191Y023496D01*
X008059Y023417D02*
X008691Y023417D01*
X028059Y023417D02*
X030191Y023417D01*
X008059Y023338D02*
X008691Y023338D01*
X028059Y023338D02*
X030191Y023338D01*
X008059Y023259D02*
X008691Y023259D01*
X028059Y023259D02*
X030191Y023259D01*
X008059Y023180D02*
X008691Y023180D01*
X028059Y023180D02*
X030191Y023180D01*
X008059Y023101D02*
X008691Y023101D01*
X028059Y023101D02*
X030191Y023101D01*
X008059Y023021D02*
X008691Y023021D01*
X028059Y023021D02*
X030191Y023021D01*
X008059Y022942D02*
X008691Y022942D01*
X028059Y022942D02*
X030191Y022942D01*
X008059Y022863D02*
X008691Y022863D01*
X028059Y022863D02*
X028941Y022863D01*
X008059Y022784D02*
X008691Y022784D01*
X028059Y022784D02*
X028941Y022784D01*
X008059Y022705D02*
X008691Y022705D01*
X028059Y022705D02*
X028941Y022705D01*
X008059Y022626D02*
X008691Y022626D01*
X028059Y022626D02*
X028941Y022626D01*
X008059Y022547D02*
X008691Y022547D01*
X028059Y022547D02*
X028941Y022547D01*
X008059Y022468D02*
X008691Y022468D01*
X028059Y022468D02*
X028941Y022468D01*
X008059Y022388D02*
X008691Y022388D01*
X028059Y022388D02*
X028941Y022388D01*
X008059Y022309D02*
X008691Y022309D01*
X028059Y022309D02*
X028941Y022309D01*
X008059Y022230D02*
X008691Y022230D01*
X028059Y022230D02*
X028941Y022230D01*
X008059Y022151D02*
X008691Y022151D01*
X028059Y022151D02*
X028941Y022151D01*
X008059Y022072D02*
X008691Y022072D01*
X028059Y022072D02*
X028941Y022072D01*
X008059Y021993D02*
X008691Y021993D01*
X028059Y021993D02*
X028941Y021993D01*
X008059Y021914D02*
X008691Y021914D01*
X028059Y021914D02*
X028941Y021914D01*
X008059Y021834D02*
X008691Y021834D01*
X028059Y021834D02*
X028941Y021834D01*
X008059Y021755D02*
X008691Y021755D01*
X028059Y021755D02*
X028941Y021755D01*
X008059Y021676D02*
X008691Y021676D01*
X028059Y021676D02*
X028941Y021676D01*
X008059Y021597D02*
X008691Y021597D01*
X028059Y021597D02*
X028941Y021597D01*
X008059Y021518D02*
X008691Y021518D01*
X028059Y021518D02*
X028941Y021518D01*
X008059Y021439D02*
X008691Y021439D01*
X028059Y021439D02*
X028941Y021439D01*
X008059Y021360D02*
X008691Y021360D01*
X028059Y021360D02*
X028941Y021360D01*
X008059Y021281D02*
X008691Y021281D01*
X028059Y021281D02*
X028941Y021281D01*
X008059Y021201D02*
X008691Y021201D01*
X028059Y021201D02*
X028941Y021201D01*
X008059Y021122D02*
X008691Y021122D01*
X028059Y021122D02*
X028941Y021122D01*
X008059Y021043D02*
X008691Y021043D01*
X028059Y021043D02*
X028941Y021043D01*
X008059Y020964D02*
X008691Y020964D01*
X028059Y020964D02*
X028941Y020964D01*
X008059Y020885D02*
X008691Y020885D01*
X028059Y020885D02*
X028941Y020885D01*
X008059Y020806D02*
X008691Y020806D01*
X028059Y020806D02*
X028941Y020806D01*
X008059Y020727D02*
X008691Y020727D01*
X028059Y020727D02*
X028941Y020727D01*
X008059Y020647D02*
X008691Y020647D01*
X028059Y020647D02*
X028941Y020647D01*
X008059Y020568D02*
X008691Y020568D01*
X028059Y020568D02*
X028941Y020568D01*
X008059Y020489D02*
X008691Y020489D01*
X028059Y020489D02*
X028941Y020489D01*
X008059Y020410D02*
X008691Y020410D01*
X028059Y020410D02*
X028941Y020410D01*
X008059Y020331D02*
X008691Y020331D01*
X028059Y020331D02*
X028941Y020331D01*
X008059Y020252D02*
X008691Y020252D01*
X028059Y020252D02*
X028941Y020252D01*
X008059Y020173D02*
X008691Y020173D01*
X028059Y020173D02*
X028941Y020173D01*
X008059Y020094D02*
X008691Y020094D01*
X028059Y020094D02*
X028941Y020094D01*
X008059Y020014D02*
X008691Y020014D01*
X028059Y020014D02*
X028941Y020014D01*
X008059Y019935D02*
X008691Y019935D01*
X028059Y019935D02*
X028941Y019935D01*
X008059Y019856D02*
X008693Y019856D01*
X028059Y019856D02*
X028941Y019856D01*
X008059Y019777D02*
X008929Y019777D01*
X009500Y019777D02*
X009500Y019777D01*
X010071Y019777D02*
X010441Y019777D01*
X028059Y019777D02*
X028941Y019777D01*
X008059Y019698D02*
X008929Y019698D01*
X009500Y019698D02*
X009500Y019698D01*
X010071Y019698D02*
X010441Y019698D01*
X028059Y019698D02*
X028941Y019698D01*
X008059Y019619D02*
X008929Y019619D01*
X009500Y019619D02*
X009500Y019619D01*
X010071Y019619D02*
X010441Y019619D01*
X028059Y019619D02*
X028941Y019619D01*
X008059Y019540D02*
X008929Y019540D01*
X009500Y019540D02*
X009500Y019540D01*
X010071Y019540D02*
X010441Y019540D01*
X028059Y019540D02*
X028941Y019540D01*
X008059Y019460D02*
X008929Y019460D01*
X009500Y019460D02*
X009500Y019460D01*
X010071Y019460D02*
X010441Y019460D01*
X028059Y019460D02*
X028941Y019460D01*
X008059Y019381D02*
X008929Y019381D01*
X009500Y019381D02*
X009500Y019381D01*
X010071Y019381D02*
X010441Y019381D01*
X028059Y019381D02*
X028941Y019381D01*
X008059Y019302D02*
X008929Y019302D01*
X009500Y019302D02*
X009500Y019302D01*
X010071Y019302D02*
X010441Y019302D01*
X028059Y019302D02*
X028941Y019302D01*
X008059Y019223D02*
X008929Y019223D01*
X009500Y019223D02*
X009500Y019223D01*
X010071Y019223D02*
X010441Y019223D01*
X028059Y019223D02*
X028941Y019223D01*
X008059Y019144D02*
X008929Y019144D01*
X009500Y019144D02*
X009500Y019144D01*
X010071Y019144D02*
X010441Y019144D01*
X028059Y019144D02*
X028941Y019144D01*
X008059Y019065D02*
X008929Y019065D01*
X009500Y019065D02*
X009500Y019065D01*
X010071Y019065D02*
X010441Y019065D01*
X028059Y019065D02*
X028941Y019065D01*
X008059Y018986D02*
X010441Y018986D01*
X028059Y018986D02*
X028941Y018986D01*
X008059Y018906D02*
X010441Y018906D01*
X028059Y018906D02*
X028941Y018906D01*
X008059Y018827D02*
X010441Y018827D01*
X028059Y018827D02*
X028941Y018827D01*
X008059Y018748D02*
X010441Y018748D01*
X028059Y018748D02*
X028941Y018748D01*
X008059Y018669D02*
X008467Y018669D01*
X028059Y018669D02*
X028941Y018669D01*
X008059Y018590D02*
X008441Y018590D01*
X028051Y018590D02*
X028941Y018590D01*
X008059Y018511D02*
X008441Y018511D01*
X026809Y018511D02*
X028941Y018511D01*
X008059Y018432D02*
X008441Y018432D01*
X026809Y018432D02*
X028941Y018432D01*
X008059Y018353D02*
X008441Y018353D01*
X026809Y018353D02*
X028941Y018353D01*
X008059Y018273D02*
X008441Y018273D01*
X026809Y018273D02*
X028941Y018273D01*
X008059Y018194D02*
X008441Y018194D01*
X026809Y018194D02*
X028941Y018194D01*
X008059Y018115D02*
X008441Y018115D01*
X026809Y018115D02*
X028941Y018115D01*
X008059Y018036D02*
X008441Y018036D01*
X026809Y018036D02*
X028941Y018036D01*
X036309Y018036D02*
X038941Y018036D01*
X008059Y017957D02*
X008441Y017957D01*
X026809Y017957D02*
X028941Y017957D01*
X036309Y017957D02*
X038941Y017957D01*
X008059Y017878D02*
X008441Y017878D01*
X026809Y017878D02*
X028941Y017878D01*
X036309Y017878D02*
X038941Y017878D01*
X008059Y017799D02*
X008441Y017799D01*
X026809Y017799D02*
X028941Y017799D01*
X036309Y017799D02*
X038941Y017799D01*
X008059Y017719D02*
X008441Y017719D01*
X026809Y017719D02*
X028941Y017719D01*
X036309Y017719D02*
X038941Y017719D01*
X008059Y017640D02*
X008441Y017640D01*
X026809Y017640D02*
X028941Y017640D01*
X036500Y017640D02*
X036500Y017640D01*
X037071Y017640D02*
X038941Y017640D01*
X008059Y017561D02*
X008441Y017561D01*
X026809Y017561D02*
X028941Y017561D01*
X036500Y017561D02*
X036500Y017561D01*
X037071Y017561D02*
X038941Y017561D01*
X008059Y017482D02*
X008441Y017482D01*
X026809Y017482D02*
X028941Y017482D01*
X036500Y017482D02*
X036500Y017482D01*
X037071Y017482D02*
X038941Y017482D01*
X008059Y017403D02*
X008441Y017403D01*
X026809Y017403D02*
X028941Y017403D01*
X036500Y017403D02*
X036500Y017403D01*
X037071Y017403D02*
X038941Y017403D01*
X008059Y017324D02*
X008441Y017324D01*
X026809Y017324D02*
X028941Y017324D01*
X036500Y017324D02*
X036500Y017324D01*
X037071Y017324D02*
X038941Y017324D01*
X008059Y017245D02*
X008441Y017245D01*
X026809Y017245D02*
X028941Y017245D01*
X036500Y017245D02*
X036500Y017245D01*
X037071Y017245D02*
X038941Y017245D01*
X008059Y017166D02*
X008441Y017166D01*
X026809Y017166D02*
X028941Y017166D01*
X036500Y017166D02*
X036500Y017166D01*
X037071Y017166D02*
X038941Y017166D01*
X008059Y017086D02*
X008441Y017086D01*
X026809Y017086D02*
X028941Y017086D01*
X036500Y017086D02*
X036500Y017086D01*
X037071Y017086D02*
X038941Y017086D01*
X008059Y017007D02*
X008441Y017007D01*
X026809Y017007D02*
X028941Y017007D01*
X036500Y017007D02*
X036500Y017007D01*
X037071Y017007D02*
X038941Y017007D01*
X008059Y016928D02*
X008441Y016928D01*
X026809Y016928D02*
X028941Y016928D01*
X037259Y016928D02*
X038941Y016928D01*
X008059Y016849D02*
X008441Y016849D01*
X026809Y016849D02*
X028941Y016849D01*
X037309Y016849D02*
X038941Y016849D01*
X008059Y016770D02*
X008441Y016770D01*
X026809Y016770D02*
X028941Y016770D01*
X037309Y016770D02*
X038941Y016770D01*
X008059Y016691D02*
X008441Y016691D01*
X026809Y016691D02*
X028941Y016691D01*
X037309Y016691D02*
X038941Y016691D01*
X008059Y016612D02*
X008441Y016612D01*
X026809Y016612D02*
X028941Y016612D01*
X037309Y016612D02*
X038941Y016612D01*
X008059Y016532D02*
X008441Y016532D01*
X026809Y016532D02*
X028941Y016532D01*
X037309Y016532D02*
X038941Y016532D01*
X008059Y016453D02*
X008441Y016453D01*
X026809Y016453D02*
X028941Y016453D01*
X037309Y016453D02*
X038941Y016453D01*
X008059Y016374D02*
X008441Y016374D01*
X026809Y016374D02*
X028941Y016374D01*
X037309Y016374D02*
X038941Y016374D01*
X008059Y016295D02*
X008441Y016295D01*
X026809Y016295D02*
X028941Y016295D01*
X037309Y016295D02*
X038941Y016295D01*
X008059Y016216D02*
X008441Y016216D01*
X026809Y016216D02*
X028941Y016216D01*
X037309Y016216D02*
X038941Y016216D01*
X008059Y016137D02*
X008441Y016137D01*
X026809Y016137D02*
X028941Y016137D01*
X037309Y016137D02*
X038941Y016137D01*
X008059Y016058D02*
X008441Y016058D01*
X026809Y016058D02*
X028941Y016058D01*
X037309Y016058D02*
X038941Y016058D01*
X008059Y015979D02*
X008441Y015979D01*
X026809Y015979D02*
X028941Y015979D01*
X037309Y015979D02*
X038941Y015979D01*
X008059Y015899D02*
X008441Y015899D01*
X026809Y015899D02*
X028941Y015899D01*
X037309Y015899D02*
X038941Y015899D01*
X008059Y015820D02*
X008441Y015820D01*
X026809Y015820D02*
X028941Y015820D01*
X037309Y015820D02*
X038941Y015820D01*
X008059Y015741D02*
X008441Y015741D01*
X026809Y015741D02*
X028941Y015741D01*
X037309Y015741D02*
X038941Y015741D01*
X008059Y015662D02*
X008441Y015662D01*
X026809Y015662D02*
X028941Y015662D01*
X037309Y015662D02*
X038941Y015662D01*
X008059Y015583D02*
X008441Y015583D01*
X026809Y015583D02*
X028941Y015583D01*
X037309Y015583D02*
X038941Y015583D01*
X008059Y015504D02*
X008441Y015504D01*
X026809Y015504D02*
X028941Y015504D01*
X037309Y015504D02*
X038941Y015504D01*
X008059Y015425D02*
X008441Y015425D01*
X026809Y015425D02*
X028941Y015425D01*
X037309Y015425D02*
X038941Y015425D01*
X008059Y015345D02*
X008441Y015345D01*
X026809Y015345D02*
X028941Y015345D01*
X037309Y015345D02*
X038941Y015345D01*
X008059Y015266D02*
X008441Y015266D01*
X026809Y015266D02*
X028941Y015266D01*
X037309Y015266D02*
X038941Y015266D01*
X008059Y015187D02*
X008441Y015187D01*
X026809Y015187D02*
X028941Y015187D01*
X037309Y015187D02*
X038941Y015187D01*
X008059Y015108D02*
X008441Y015108D01*
X026809Y015108D02*
X028941Y015108D01*
X037309Y015108D02*
X038941Y015108D01*
X008059Y015029D02*
X008441Y015029D01*
X026809Y015029D02*
X028941Y015029D01*
X037309Y015029D02*
X038941Y015029D01*
X008059Y014950D02*
X008441Y014950D01*
X026809Y014950D02*
X028941Y014950D01*
X037309Y014950D02*
X038941Y014950D01*
X008059Y014871D02*
X008441Y014871D01*
X026809Y014871D02*
X028941Y014871D01*
X037309Y014871D02*
X038941Y014871D01*
X008059Y014792D02*
X008441Y014792D01*
X026809Y014792D02*
X028941Y014792D01*
X037309Y014792D02*
X038941Y014792D01*
X008059Y014712D02*
X008441Y014712D01*
X026809Y014712D02*
X028941Y014712D01*
X037309Y014712D02*
X038941Y014712D01*
X008059Y014633D02*
X008441Y014633D01*
X026809Y014633D02*
X028941Y014633D01*
X037309Y014633D02*
X038941Y014633D01*
X008059Y014554D02*
X008441Y014554D01*
X022953Y014554D02*
X023191Y014554D01*
X026809Y014554D02*
X028941Y014554D01*
X037309Y014554D02*
X038941Y014554D01*
X008059Y014475D02*
X008441Y014475D01*
X022953Y014475D02*
X023191Y014475D01*
X026809Y014475D02*
X028941Y014475D01*
X037309Y014475D02*
X038941Y014475D01*
X008059Y014396D02*
X008441Y014396D01*
X022953Y014396D02*
X023191Y014396D01*
X026809Y014396D02*
X028941Y014396D01*
X037309Y014396D02*
X038941Y014396D01*
X008059Y014317D02*
X008441Y014317D01*
X022953Y014317D02*
X023191Y014317D01*
X026809Y014317D02*
X028941Y014317D01*
X037309Y014317D02*
X038941Y014317D01*
X008059Y014238D02*
X008441Y014238D01*
X022953Y014238D02*
X023191Y014238D01*
X026809Y014238D02*
X028941Y014238D01*
X037309Y014238D02*
X038941Y014238D01*
X008059Y014158D02*
X008441Y014158D01*
X022953Y014158D02*
X023191Y014158D01*
X026809Y014158D02*
X028941Y014158D01*
X037309Y014158D02*
X038941Y014158D01*
X008059Y014079D02*
X008441Y014079D01*
X022948Y014079D02*
X023191Y014079D01*
X026809Y014079D02*
X028941Y014079D01*
X037309Y014079D02*
X038941Y014079D01*
X008059Y014000D02*
X008441Y014000D01*
X022936Y014000D02*
X023191Y014000D01*
X026809Y014000D02*
X028941Y014000D01*
X037309Y014000D02*
X038941Y014000D01*
X008059Y013921D02*
X008441Y013921D01*
X022904Y013921D02*
X023191Y013921D01*
X026809Y013921D02*
X028941Y013921D01*
X037309Y013921D02*
X038941Y013921D01*
X008059Y013842D02*
X008441Y013842D01*
X022853Y013842D02*
X023191Y013842D01*
X026809Y013842D02*
X028941Y013842D01*
X037309Y013842D02*
X038941Y013842D01*
X008059Y013763D02*
X008441Y013763D01*
X022809Y013763D02*
X023191Y013763D01*
X026809Y013763D02*
X028941Y013763D01*
X037309Y013763D02*
X038941Y013763D01*
X008059Y013684D02*
X008441Y013684D01*
X022809Y013684D02*
X023191Y013684D01*
X026809Y013684D02*
X028941Y013684D01*
X037309Y013684D02*
X038941Y013684D01*
X008059Y013605D02*
X008441Y013605D01*
X022809Y013605D02*
X023191Y013605D01*
X026809Y013605D02*
X028901Y013605D01*
X037309Y013605D02*
X038941Y013605D01*
X008059Y013525D02*
X008441Y013525D01*
X022809Y013525D02*
X023191Y013525D01*
X026809Y013525D02*
X028822Y013525D01*
X037309Y013525D02*
X038941Y013525D01*
X008059Y013446D02*
X008441Y013446D01*
X022809Y013446D02*
X023191Y013446D01*
X026809Y013446D02*
X028742Y013446D01*
X037309Y013446D02*
X038941Y013446D01*
X008059Y013367D02*
X008441Y013367D01*
X022809Y013367D02*
X023191Y013367D01*
X026809Y013367D02*
X028663Y013367D01*
X037309Y013367D02*
X038941Y013367D01*
X008059Y013288D02*
X008441Y013288D01*
X022809Y013288D02*
X023191Y013288D01*
X026809Y013288D02*
X028584Y013288D01*
X037309Y013288D02*
X038941Y013288D01*
X008059Y013209D02*
X008441Y013209D01*
X022809Y013209D02*
X023191Y013209D01*
X026809Y013209D02*
X028505Y013209D01*
X037309Y013209D02*
X038941Y013209D01*
X008059Y013130D02*
X008441Y013130D01*
X022809Y013130D02*
X023191Y013130D01*
X026809Y013130D02*
X028426Y013130D01*
X037309Y013130D02*
X038941Y013130D01*
X008059Y013051D02*
X009679Y013051D01*
X010250Y013051D02*
X010250Y013051D01*
X010821Y013051D02*
X010941Y013051D01*
X013559Y013051D02*
X014179Y013051D01*
X014750Y013051D02*
X014750Y013051D01*
X015321Y013051D02*
X015441Y013051D01*
X017809Y013051D02*
X018679Y013051D01*
X019250Y013051D02*
X019250Y013051D01*
X019821Y013051D02*
X019941Y013051D01*
X022809Y013051D02*
X023191Y013051D01*
X026764Y013051D02*
X028347Y013051D01*
X037309Y013051D02*
X038941Y013051D01*
X008059Y012971D02*
X009679Y012971D01*
X010250Y012971D02*
X010250Y012971D01*
X010821Y012971D02*
X010941Y012971D01*
X013559Y012971D02*
X014179Y012971D01*
X014750Y012971D02*
X014750Y012971D01*
X015321Y012971D02*
X015441Y012971D01*
X017809Y012971D02*
X018679Y012971D01*
X019250Y012971D02*
X019250Y012971D01*
X019821Y012971D02*
X019941Y012971D01*
X022809Y012971D02*
X023191Y012971D01*
X026685Y012971D02*
X028268Y012971D01*
X037309Y012971D02*
X038941Y012971D01*
X008059Y012892D02*
X009679Y012892D01*
X010250Y012892D02*
X010250Y012892D01*
X010821Y012892D02*
X010941Y012892D01*
X013559Y012892D02*
X014179Y012892D01*
X014750Y012892D02*
X014750Y012892D01*
X015321Y012892D02*
X015441Y012892D01*
X017809Y012892D02*
X018679Y012892D01*
X019250Y012892D02*
X019250Y012892D01*
X019821Y012892D02*
X019941Y012892D01*
X022809Y012892D02*
X023191Y012892D01*
X026606Y012892D02*
X028188Y012892D01*
X037309Y012892D02*
X038941Y012892D01*
X008059Y012813D02*
X009679Y012813D01*
X010250Y012813D02*
X010250Y012813D01*
X010821Y012813D02*
X010941Y012813D01*
X013559Y012813D02*
X014179Y012813D01*
X014750Y012813D02*
X014750Y012813D01*
X015321Y012813D02*
X015441Y012813D01*
X017809Y012813D02*
X018679Y012813D01*
X019250Y012813D02*
X019250Y012813D01*
X019821Y012813D02*
X019941Y012813D01*
X022809Y012813D02*
X023191Y012813D01*
X026527Y012813D02*
X028109Y012813D01*
X037309Y012813D02*
X038941Y012813D01*
X008059Y012734D02*
X009679Y012734D01*
X010250Y012734D02*
X010250Y012734D01*
X010821Y012734D02*
X010941Y012734D01*
X013559Y012734D02*
X014179Y012734D01*
X014750Y012734D02*
X014750Y012734D01*
X015321Y012734D02*
X015441Y012734D01*
X017809Y012734D02*
X018679Y012734D01*
X019250Y012734D02*
X019250Y012734D01*
X019821Y012734D02*
X019941Y012734D01*
X022809Y012734D02*
X023191Y012734D01*
X026448Y012734D02*
X028030Y012734D01*
X037309Y012734D02*
X038941Y012734D01*
X008059Y012655D02*
X009679Y012655D01*
X010250Y012655D02*
X010250Y012655D01*
X010821Y012655D02*
X010941Y012655D01*
X013559Y012655D02*
X014179Y012655D01*
X014750Y012655D02*
X014750Y012655D01*
X015321Y012655D02*
X015441Y012655D01*
X017809Y012655D02*
X018679Y012655D01*
X019250Y012655D02*
X019250Y012655D01*
X019821Y012655D02*
X019941Y012655D01*
X022809Y012655D02*
X023191Y012655D01*
X026369Y012655D02*
X027951Y012655D01*
X037309Y012655D02*
X038941Y012655D01*
X008059Y012576D02*
X009679Y012576D01*
X010250Y012576D02*
X010250Y012576D01*
X010821Y012576D02*
X010941Y012576D01*
X013559Y012576D02*
X014179Y012576D01*
X014750Y012576D02*
X014750Y012576D01*
X015321Y012576D02*
X015441Y012576D01*
X017809Y012576D02*
X018679Y012576D01*
X019250Y012576D02*
X019250Y012576D01*
X019821Y012576D02*
X019941Y012576D01*
X022809Y012576D02*
X023191Y012576D01*
X026290Y012576D02*
X027872Y012576D01*
X037289Y012576D02*
X038941Y012576D01*
X008059Y012497D02*
X009679Y012497D01*
X010250Y012497D02*
X010250Y012497D01*
X010821Y012497D02*
X010941Y012497D01*
X013559Y012497D02*
X014179Y012497D01*
X014750Y012497D02*
X014750Y012497D01*
X015321Y012497D02*
X015441Y012497D01*
X017809Y012497D02*
X018679Y012497D01*
X019250Y012497D02*
X019250Y012497D01*
X019821Y012497D02*
X019941Y012497D01*
X022809Y012497D02*
X023191Y012497D01*
X026210Y012497D02*
X027793Y012497D01*
X036559Y012497D02*
X038941Y012497D01*
X008059Y012418D02*
X009679Y012418D01*
X010250Y012418D02*
X010250Y012418D01*
X010821Y012418D02*
X010941Y012418D01*
X013559Y012418D02*
X014179Y012418D01*
X014750Y012418D02*
X014750Y012418D01*
X015321Y012418D02*
X015441Y012418D01*
X017809Y012418D02*
X018679Y012418D01*
X019250Y012418D02*
X019250Y012418D01*
X019821Y012418D02*
X019941Y012418D01*
X022809Y012418D02*
X023191Y012418D01*
X026131Y012418D02*
X027714Y012418D01*
X036559Y012418D02*
X038941Y012418D01*
X008059Y012338D02*
X009679Y012338D01*
X010250Y012338D02*
X010250Y012338D01*
X010821Y012338D02*
X010941Y012338D01*
X013559Y012338D02*
X014179Y012338D01*
X014750Y012338D02*
X014750Y012338D01*
X015321Y012338D02*
X015441Y012338D01*
X017809Y012338D02*
X018679Y012338D01*
X019250Y012338D02*
X019250Y012338D01*
X019821Y012338D02*
X019941Y012338D01*
X022809Y012338D02*
X023191Y012338D01*
X026052Y012338D02*
X027635Y012338D01*
X036559Y012338D02*
X038941Y012338D01*
X008059Y012259D02*
X009679Y012259D01*
X010250Y012259D02*
X010250Y012259D01*
X010821Y012259D02*
X010941Y012259D01*
X013559Y012259D02*
X014179Y012259D01*
X014750Y012259D02*
X014750Y012259D01*
X015321Y012259D02*
X015441Y012259D01*
X017809Y012259D02*
X018679Y012259D01*
X019250Y012259D02*
X019250Y012259D01*
X019821Y012259D02*
X019941Y012259D01*
X022809Y012259D02*
X023191Y012259D01*
X025973Y012259D02*
X027555Y012259D01*
X036559Y012259D02*
X038941Y012259D01*
X008059Y012180D02*
X009679Y012180D01*
X010250Y012180D02*
X010250Y012180D01*
X010821Y012180D02*
X010941Y012180D01*
X013559Y012180D02*
X014179Y012180D01*
X014750Y012180D02*
X014750Y012180D01*
X015321Y012180D02*
X015441Y012180D01*
X017809Y012180D02*
X018679Y012180D01*
X019250Y012180D02*
X019250Y012180D01*
X019821Y012180D02*
X019941Y012180D01*
X022809Y012180D02*
X023191Y012180D01*
X025894Y012180D02*
X027476Y012180D01*
X036559Y012180D02*
X038941Y012180D01*
X008059Y012101D02*
X009679Y012101D01*
X010250Y012101D02*
X010250Y012101D01*
X010821Y012101D02*
X010941Y012101D01*
X013559Y012101D02*
X014179Y012101D01*
X014750Y012101D02*
X014750Y012101D01*
X015321Y012101D02*
X015441Y012101D01*
X017809Y012101D02*
X018679Y012101D01*
X019250Y012101D02*
X019250Y012101D01*
X019821Y012101D02*
X019941Y012101D01*
X022809Y012101D02*
X023191Y012101D01*
X025815Y012101D02*
X027397Y012101D01*
X036559Y012101D02*
X038941Y012101D01*
X008059Y012022D02*
X010941Y012022D01*
X013559Y012022D02*
X015441Y012022D01*
X017809Y012022D02*
X019941Y012022D01*
X022809Y012022D02*
X023191Y012022D01*
X025736Y012022D02*
X027318Y012022D01*
X036559Y012022D02*
X038941Y012022D01*
X008059Y011943D02*
X010941Y011943D01*
X013559Y011943D02*
X015441Y011943D01*
X017809Y011943D02*
X019941Y011943D01*
X022809Y011943D02*
X023191Y011943D01*
X025656Y011943D02*
X027239Y011943D01*
X036559Y011943D02*
X038941Y011943D01*
X008059Y011864D02*
X010941Y011864D01*
X013559Y011864D02*
X015441Y011864D01*
X017809Y011864D02*
X019941Y011864D01*
X022809Y011864D02*
X023192Y011864D01*
X025577Y011864D02*
X027160Y011864D01*
X036559Y011864D02*
X038941Y011864D01*
X008059Y011784D02*
X010941Y011784D01*
X013559Y011784D02*
X015441Y011784D01*
X017809Y011784D02*
X019941Y011784D01*
X022809Y011784D02*
X027081Y011784D01*
X036559Y011784D02*
X038941Y011784D01*
X008059Y011705D02*
X010941Y011705D01*
X013559Y011705D02*
X015441Y011705D01*
X017809Y011705D02*
X019941Y011705D01*
X022809Y011705D02*
X027001Y011705D01*
X036559Y011705D02*
X038941Y011705D01*
X008059Y011626D02*
X010941Y011626D01*
X013559Y011626D02*
X015441Y011626D01*
X017809Y011626D02*
X019941Y011626D01*
X022809Y011626D02*
X026922Y011626D01*
X036559Y011626D02*
X038941Y011626D01*
X008059Y011547D02*
X010941Y011547D01*
X013559Y011547D02*
X015441Y011547D01*
X017809Y011547D02*
X019941Y011547D01*
X022809Y011547D02*
X026843Y011547D01*
X036559Y011547D02*
X038941Y011547D01*
X008059Y011468D02*
X010941Y011468D01*
X013559Y011468D02*
X015441Y011468D01*
X017809Y011468D02*
X019941Y011468D01*
X022809Y011468D02*
X026764Y011468D01*
X036559Y011468D02*
X038941Y011468D01*
X008059Y011389D02*
X010941Y011389D01*
X013559Y011389D02*
X015441Y011389D01*
X017809Y011389D02*
X019941Y011389D01*
X022809Y011389D02*
X026685Y011389D01*
X036559Y011389D02*
X038941Y011389D01*
X008059Y011310D02*
X010941Y011310D01*
X013559Y011310D02*
X015441Y011310D01*
X017809Y011310D02*
X019941Y011310D01*
X022809Y011310D02*
X026606Y011310D01*
X036559Y011310D02*
X038941Y011310D01*
X008059Y011231D02*
X010941Y011231D01*
X013559Y011231D02*
X015441Y011231D01*
X017809Y011231D02*
X019941Y011231D01*
X022809Y011231D02*
X026527Y011231D01*
X036559Y011231D02*
X038941Y011231D01*
X008059Y011151D02*
X010941Y011151D01*
X013559Y011151D02*
X015441Y011151D01*
X017809Y011151D02*
X019941Y011151D01*
X022809Y011151D02*
X026450Y011151D01*
X036559Y011151D02*
X038941Y011151D01*
X008059Y011072D02*
X010941Y011072D01*
X013559Y011072D02*
X015441Y011072D01*
X017809Y011072D02*
X019941Y011072D01*
X022809Y011072D02*
X026441Y011072D01*
X036559Y011072D02*
X038941Y011072D01*
X008059Y010993D02*
X010941Y010993D01*
X013559Y010993D02*
X015441Y010993D01*
X017809Y010993D02*
X019941Y010993D01*
X022809Y010993D02*
X026441Y010993D01*
X036559Y010993D02*
X038941Y010993D01*
X008059Y010914D02*
X010941Y010914D01*
X013559Y010914D02*
X015441Y010914D01*
X017809Y010914D02*
X019941Y010914D01*
X022809Y010914D02*
X026441Y010914D01*
X036559Y010914D02*
X038941Y010914D01*
X008059Y010835D02*
X010941Y010835D01*
X013559Y010835D02*
X015441Y010835D01*
X017809Y010835D02*
X019941Y010835D01*
X022809Y010835D02*
X026441Y010835D01*
X036559Y010835D02*
X038941Y010835D01*
X008059Y010756D02*
X010941Y010756D01*
X013559Y010756D02*
X015441Y010756D01*
X017809Y010756D02*
X019941Y010756D01*
X022809Y010756D02*
X026441Y010756D01*
X036559Y010756D02*
X038941Y010756D01*
X008059Y010677D02*
X010941Y010677D01*
X013559Y010677D02*
X015441Y010677D01*
X017809Y010677D02*
X019941Y010677D01*
X022809Y010677D02*
X026441Y010677D01*
X036559Y010677D02*
X038941Y010677D01*
X008059Y010597D02*
X010941Y010597D01*
X013559Y010597D02*
X015441Y010597D01*
X017809Y010597D02*
X019941Y010597D01*
X022809Y010597D02*
X026441Y010597D01*
X036559Y010597D02*
X038941Y010597D01*
X008059Y010518D02*
X010941Y010518D01*
X013559Y010518D02*
X015441Y010518D01*
X017809Y010518D02*
X019941Y010518D01*
X022809Y010518D02*
X026441Y010518D01*
X036559Y010518D02*
X038941Y010518D01*
X008059Y010439D02*
X010941Y010439D01*
X013559Y010439D02*
X015441Y010439D01*
X017809Y010439D02*
X019941Y010439D01*
X022809Y010439D02*
X026441Y010439D01*
X036559Y010439D02*
X038941Y010439D01*
X008059Y010360D02*
X010941Y010360D01*
X013559Y010360D02*
X015441Y010360D01*
X017809Y010360D02*
X019941Y010360D01*
X022809Y010360D02*
X026441Y010360D01*
X036559Y010360D02*
X038941Y010360D01*
X008059Y010281D02*
X010941Y010281D01*
X013559Y010281D02*
X015441Y010281D01*
X017809Y010281D02*
X019941Y010281D01*
X022809Y010281D02*
X026441Y010281D01*
X036559Y010281D02*
X038941Y010281D01*
X008059Y010202D02*
X010941Y010202D01*
X013559Y010202D02*
X015441Y010202D01*
X017809Y010202D02*
X019941Y010202D01*
X022809Y010202D02*
X026441Y010202D01*
X036559Y010202D02*
X038941Y010202D01*
X008059Y010123D02*
X009679Y010123D01*
X010250Y010123D02*
X010250Y010123D01*
X010821Y010123D02*
X010941Y010123D01*
X013559Y010123D02*
X014179Y010123D01*
X014750Y010123D02*
X014750Y010123D01*
X015321Y010123D02*
X015441Y010123D01*
X017809Y010123D02*
X018679Y010123D01*
X019250Y010123D02*
X019250Y010123D01*
X019821Y010123D02*
X019941Y010123D01*
X022809Y010123D02*
X026441Y010123D01*
X036559Y010123D02*
X038941Y010123D01*
X008059Y010044D02*
X009679Y010044D01*
X010250Y010044D02*
X010250Y010044D01*
X010821Y010044D02*
X010941Y010044D01*
X013559Y010044D02*
X014179Y010044D01*
X014750Y010044D02*
X014750Y010044D01*
X015321Y010044D02*
X015441Y010044D01*
X017809Y010044D02*
X018679Y010044D01*
X019250Y010044D02*
X019250Y010044D01*
X019821Y010044D02*
X019941Y010044D01*
X022809Y010044D02*
X026441Y010044D01*
X036559Y010044D02*
X038941Y010044D01*
X008059Y009964D02*
X009679Y009964D01*
X010250Y009964D02*
X010250Y009964D01*
X010821Y009964D02*
X010941Y009964D01*
X013559Y009964D02*
X014179Y009964D01*
X014750Y009964D02*
X014750Y009964D01*
X015321Y009964D02*
X015441Y009964D01*
X017809Y009964D02*
X018679Y009964D01*
X019250Y009964D02*
X019250Y009964D01*
X019821Y009964D02*
X019941Y009964D01*
X022809Y009964D02*
X026441Y009964D01*
X036559Y009964D02*
X038941Y009964D01*
X008059Y009885D02*
X009679Y009885D01*
X010250Y009885D02*
X010250Y009885D01*
X010821Y009885D02*
X010941Y009885D01*
X013559Y009885D02*
X014179Y009885D01*
X014750Y009885D02*
X014750Y009885D01*
X015321Y009885D02*
X015441Y009885D01*
X017809Y009885D02*
X018679Y009885D01*
X019250Y009885D02*
X019250Y009885D01*
X019821Y009885D02*
X019941Y009885D01*
X022809Y009885D02*
X026441Y009885D01*
X036559Y009885D02*
X038941Y009885D01*
X008059Y009806D02*
X009679Y009806D01*
X010250Y009806D02*
X010250Y009806D01*
X010821Y009806D02*
X010941Y009806D01*
X013559Y009806D02*
X014179Y009806D01*
X014750Y009806D02*
X014750Y009806D01*
X015321Y009806D02*
X015441Y009806D01*
X017809Y009806D02*
X018679Y009806D01*
X019250Y009806D02*
X019250Y009806D01*
X019821Y009806D02*
X019941Y009806D01*
X022809Y009806D02*
X026441Y009806D01*
X036559Y009806D02*
X038941Y009806D01*
X008059Y009727D02*
X009679Y009727D01*
X010250Y009727D02*
X010250Y009727D01*
X010821Y009727D02*
X010941Y009727D01*
X013559Y009727D02*
X014179Y009727D01*
X014750Y009727D02*
X014750Y009727D01*
X015321Y009727D02*
X015441Y009727D01*
X017809Y009727D02*
X018679Y009727D01*
X019250Y009727D02*
X019250Y009727D01*
X019821Y009727D02*
X019941Y009727D01*
X022809Y009727D02*
X026441Y009727D01*
X036559Y009727D02*
X038941Y009727D01*
X008059Y009648D02*
X009679Y009648D01*
X010250Y009648D02*
X010250Y009648D01*
X010821Y009648D02*
X010941Y009648D01*
X013559Y009648D02*
X014179Y009648D01*
X014750Y009648D02*
X014750Y009648D01*
X015321Y009648D02*
X015441Y009648D01*
X017809Y009648D02*
X018679Y009648D01*
X019250Y009648D02*
X019250Y009648D01*
X019821Y009648D02*
X019941Y009648D01*
X022809Y009648D02*
X026441Y009648D01*
X036559Y009648D02*
X038941Y009648D01*
X008059Y009569D02*
X009679Y009569D01*
X010250Y009569D02*
X010250Y009569D01*
X010821Y009569D02*
X010941Y009569D01*
X013559Y009569D02*
X014179Y009569D01*
X014750Y009569D02*
X014750Y009569D01*
X015321Y009569D02*
X015441Y009569D01*
X017809Y009569D02*
X018679Y009569D01*
X019250Y009569D02*
X019250Y009569D01*
X019821Y009569D02*
X019941Y009569D01*
X022809Y009569D02*
X026441Y009569D01*
X036559Y009569D02*
X038941Y009569D01*
X008059Y009490D02*
X009679Y009490D01*
X010250Y009490D02*
X010250Y009490D01*
X010821Y009490D02*
X010941Y009490D01*
X013559Y009490D02*
X014179Y009490D01*
X014750Y009490D02*
X014750Y009490D01*
X015321Y009490D02*
X015441Y009490D01*
X017809Y009490D02*
X018679Y009490D01*
X019250Y009490D02*
X019250Y009490D01*
X019821Y009490D02*
X019941Y009490D01*
X022809Y009490D02*
X026441Y009490D01*
X036559Y009490D02*
X038941Y009490D01*
X008059Y009410D02*
X009679Y009410D01*
X010250Y009410D02*
X010250Y009410D01*
X010821Y009410D02*
X010941Y009410D01*
X013559Y009410D02*
X014179Y009410D01*
X014750Y009410D02*
X014750Y009410D01*
X015321Y009410D02*
X015441Y009410D01*
X017809Y009410D02*
X018679Y009410D01*
X019250Y009410D02*
X019250Y009410D01*
X019821Y009410D02*
X019941Y009410D01*
X022809Y009410D02*
X026441Y009410D01*
X036559Y009410D02*
X038941Y009410D01*
X008059Y009331D02*
X009679Y009331D01*
X010250Y009331D02*
X010250Y009331D01*
X010821Y009331D02*
X010941Y009331D01*
X013559Y009331D02*
X014179Y009331D01*
X014750Y009331D02*
X014750Y009331D01*
X015321Y009331D02*
X015441Y009331D01*
X017809Y009331D02*
X018679Y009331D01*
X019250Y009331D02*
X019250Y009331D01*
X019821Y009331D02*
X019941Y009331D01*
X022809Y009331D02*
X026441Y009331D01*
X036559Y009331D02*
X038941Y009331D01*
X008059Y009252D02*
X009679Y009252D01*
X010250Y009252D02*
X010250Y009252D01*
X010821Y009252D02*
X010941Y009252D01*
X013559Y009252D02*
X014179Y009252D01*
X014750Y009252D02*
X014750Y009252D01*
X015321Y009252D02*
X015441Y009252D01*
X017809Y009252D02*
X018679Y009252D01*
X019250Y009252D02*
X019250Y009252D01*
X019821Y009252D02*
X019941Y009252D01*
X022809Y009252D02*
X026441Y009252D01*
X036559Y009252D02*
X038941Y009252D01*
X008059Y009173D02*
X009679Y009173D01*
X010250Y009173D02*
X010250Y009173D01*
X010821Y009173D02*
X010941Y009173D01*
X013559Y009173D02*
X014179Y009173D01*
X014750Y009173D02*
X014750Y009173D01*
X015321Y009173D02*
X015441Y009173D01*
X017809Y009173D02*
X018679Y009173D01*
X019250Y009173D02*
X019250Y009173D01*
X019821Y009173D02*
X019941Y009173D01*
X022809Y009173D02*
X026441Y009173D01*
X036559Y009173D02*
X038941Y009173D01*
X008059Y009094D02*
X009679Y009094D01*
X010250Y009094D02*
X010250Y009094D01*
X010821Y009094D02*
X010941Y009094D01*
X013559Y009094D02*
X014179Y009094D01*
X014750Y009094D02*
X014750Y009094D01*
X015321Y009094D02*
X015441Y009094D01*
X017809Y009094D02*
X018679Y009094D01*
X019250Y009094D02*
X019250Y009094D01*
X019821Y009094D02*
X019941Y009094D01*
X022809Y009094D02*
X026441Y009094D01*
X036559Y009094D02*
X038941Y009094D01*
X008059Y009015D02*
X010941Y009015D01*
X013559Y009015D02*
X015441Y009015D01*
X017809Y009015D02*
X019941Y009015D01*
X022809Y009015D02*
X026441Y009015D01*
X036559Y009015D02*
X038941Y009015D01*
X008059Y008936D02*
X010941Y008936D01*
X013559Y008936D02*
X015441Y008936D01*
X017809Y008936D02*
X019941Y008936D01*
X022809Y008936D02*
X026441Y008936D01*
X036559Y008936D02*
X038941Y008936D01*
X008059Y008856D02*
X010943Y008856D01*
X013557Y008856D02*
X015443Y008856D01*
X017807Y008856D02*
X019943Y008856D01*
X022807Y008856D02*
X026441Y008856D01*
X036559Y008856D02*
X038941Y008856D01*
X008059Y008777D02*
X026441Y008777D01*
X036559Y008777D02*
X038941Y008777D01*
X008059Y008698D02*
X026441Y008698D01*
X036559Y008698D02*
X038941Y008698D01*
X008059Y008619D02*
X026441Y008619D01*
X036559Y008619D02*
X038941Y008619D01*
X008059Y008540D02*
X026441Y008540D01*
X036559Y008540D02*
X038941Y008540D01*
X008059Y008461D02*
X026441Y008461D01*
X036559Y008461D02*
X038941Y008461D01*
X008059Y008382D02*
X026441Y008382D01*
X036559Y008382D02*
X038941Y008382D01*
X008059Y008303D02*
X038941Y008303D01*
X008059Y008223D02*
X038941Y008223D01*
X008059Y008144D02*
X038941Y008144D01*
X008059Y008065D02*
X038941Y008065D01*
X008059Y007986D02*
X038941Y007986D01*
X008059Y007907D02*
X038941Y007907D01*
X008059Y007828D02*
X038941Y007828D01*
X008059Y007749D02*
X038941Y007749D01*
X016177Y031020D02*
X016177Y030929D01*
X015250Y030929D01*
X015235Y030927D01*
X015220Y030921D01*
X015208Y030912D01*
X015199Y030900D01*
X015193Y030885D01*
X015191Y030870D01*
X015191Y030679D01*
X014827Y030679D01*
X014827Y031018D01*
X014000Y031018D01*
X014000Y030679D01*
X014000Y030679D01*
X014000Y031018D01*
X013173Y031018D01*
X013173Y030679D01*
X012702Y030679D01*
X012744Y030697D01*
X012846Y030774D01*
X012923Y030876D01*
X012972Y030994D01*
X012989Y031120D01*
X012500Y031120D01*
X012500Y030679D01*
X012500Y030679D01*
X012500Y031120D01*
X012059Y031120D01*
X012059Y031120D01*
X012500Y031120D01*
X012500Y031609D01*
X012373Y031592D01*
X012256Y031543D01*
X012154Y031466D01*
X012077Y031364D01*
X012059Y031322D01*
X012059Y031917D01*
X023191Y031917D01*
X023191Y030179D01*
X020500Y030179D01*
X020485Y030177D01*
X020470Y030171D01*
X020458Y030162D01*
X020449Y030150D01*
X020443Y030135D01*
X020441Y030120D01*
X020441Y027929D01*
X020059Y027929D01*
X020059Y028041D01*
X020063Y028045D01*
X020128Y028202D01*
X020150Y028370D01*
X020128Y028538D01*
X020063Y028695D01*
X020059Y028700D01*
X020059Y030060D01*
X020067Y030120D01*
X020059Y030180D01*
X020059Y030620D01*
X020057Y030635D01*
X020051Y030650D01*
X020042Y030662D01*
X020030Y030671D01*
X020015Y030677D01*
X020000Y030679D01*
X019702Y030679D01*
X019744Y030697D01*
X019846Y030774D01*
X019923Y030876D01*
X019972Y030994D01*
X019989Y031120D01*
X019500Y031120D01*
X019500Y030687D01*
X019500Y030687D01*
X019500Y030687D01*
X019500Y031120D01*
X019011Y031120D01*
X019028Y030994D01*
X019077Y030876D01*
X019154Y030774D01*
X019256Y030697D01*
X019298Y030679D01*
X017809Y030679D01*
X017809Y030801D01*
X018000Y030801D01*
X018000Y031199D01*
X017488Y031199D01*
X017488Y030929D01*
X016831Y030929D01*
X016831Y031020D01*
X016504Y031020D01*
X016504Y030929D01*
X016504Y030929D01*
X016504Y031020D01*
X016177Y031020D01*
X018000Y031199D02*
X018000Y031597D01*
X017488Y031597D01*
X017488Y031199D01*
X018000Y031199D01*
X018000Y030801D02*
X018512Y030801D01*
X018512Y031199D01*
X018000Y031199D01*
X018000Y030801D01*
X018512Y031199D02*
X018512Y031597D01*
X018000Y031597D01*
X018000Y031199D01*
X018512Y031199D01*
X014827Y031530D02*
X014000Y031530D01*
X014000Y031018D01*
X014827Y031018D01*
X014827Y031530D01*
X014000Y031530D02*
X013173Y031530D01*
X013173Y031018D01*
X014000Y031018D01*
X014000Y031530D01*
X019500Y031120D02*
X019500Y031609D01*
X019373Y031592D01*
X019256Y031543D01*
X019154Y031466D01*
X019077Y031364D01*
X019028Y031247D01*
X019011Y031120D01*
X019500Y031120D01*
X019989Y031120D02*
X019972Y031247D01*
X019923Y031364D01*
X019846Y031466D01*
X019744Y031543D01*
X019627Y031592D01*
X019500Y031609D01*
X019500Y031120D01*
X019989Y031120D01*
X012989Y031120D02*
X012972Y031247D01*
X012923Y031364D01*
X012846Y031466D01*
X012744Y031543D01*
X012627Y031592D01*
X012500Y031609D01*
X012500Y031120D01*
X012989Y031120D01*
X012059Y031917D02*
X023191Y031917D01*
X012059Y031838D02*
X023191Y031838D01*
X012059Y031759D02*
X023191Y031759D01*
X012059Y031680D02*
X023191Y031680D01*
X012059Y031601D02*
X012437Y031601D01*
X012500Y031601D02*
X012500Y031601D01*
X012563Y031601D02*
X019437Y031601D01*
X019500Y031601D02*
X019500Y031601D01*
X019563Y031601D02*
X023191Y031601D01*
X012059Y031521D02*
X012227Y031521D01*
X012500Y031521D02*
X012500Y031521D01*
X012773Y031521D02*
X013173Y031521D01*
X014000Y031521D02*
X014000Y031521D01*
X014827Y031521D02*
X017488Y031521D01*
X018000Y031521D02*
X018000Y031521D01*
X018512Y031521D02*
X019227Y031521D01*
X019500Y031521D02*
X019500Y031521D01*
X019773Y031521D02*
X023191Y031521D01*
X012059Y031442D02*
X012136Y031442D01*
X012500Y031442D02*
X012500Y031442D01*
X012864Y031442D02*
X013173Y031442D01*
X014000Y031442D02*
X014000Y031442D01*
X014827Y031442D02*
X017488Y031442D01*
X018000Y031442D02*
X018000Y031442D01*
X018512Y031442D02*
X019136Y031442D01*
X019500Y031442D02*
X019500Y031442D01*
X019864Y031442D02*
X023191Y031442D01*
X012059Y031363D02*
X012076Y031363D01*
X012500Y031363D02*
X012500Y031363D01*
X012924Y031363D02*
X013173Y031363D01*
X014000Y031363D02*
X014000Y031363D01*
X014827Y031363D02*
X017488Y031363D01*
X018000Y031363D02*
X018000Y031363D01*
X018512Y031363D02*
X019076Y031363D01*
X019500Y031363D02*
X019500Y031363D01*
X019924Y031363D02*
X023191Y031363D01*
X012500Y031284D02*
X012500Y031284D01*
X012957Y031284D02*
X013173Y031284D01*
X014000Y031284D02*
X014000Y031284D01*
X014827Y031284D02*
X017488Y031284D01*
X018000Y031284D02*
X018000Y031284D01*
X018512Y031284D02*
X019043Y031284D01*
X019500Y031284D02*
X019500Y031284D01*
X019957Y031284D02*
X023191Y031284D01*
X012500Y031205D02*
X012500Y031205D01*
X012978Y031205D02*
X013173Y031205D01*
X014000Y031205D02*
X014000Y031205D01*
X014827Y031205D02*
X017488Y031205D01*
X018000Y031205D02*
X018000Y031205D01*
X018512Y031205D02*
X019022Y031205D01*
X019500Y031205D02*
X019500Y031205D01*
X019978Y031205D02*
X023191Y031205D01*
X012500Y031126D02*
X012500Y031126D01*
X012988Y031126D02*
X013173Y031126D01*
X014000Y031126D02*
X014000Y031126D01*
X014827Y031126D02*
X017488Y031126D01*
X018000Y031126D02*
X018000Y031126D01*
X018512Y031126D02*
X019012Y031126D01*
X019500Y031126D02*
X019500Y031126D01*
X019988Y031126D02*
X023191Y031126D01*
X012500Y031047D02*
X012500Y031047D01*
X012979Y031047D02*
X013173Y031047D01*
X014000Y031047D02*
X014000Y031047D01*
X014827Y031047D02*
X017488Y031047D01*
X018000Y031047D02*
X018000Y031047D01*
X018512Y031047D02*
X019021Y031047D01*
X019500Y031047D02*
X019500Y031047D01*
X019979Y031047D02*
X023191Y031047D01*
X012500Y030968D02*
X012500Y030968D01*
X012961Y030968D02*
X013173Y030968D01*
X014000Y030968D02*
X014000Y030968D01*
X014827Y030968D02*
X016177Y030968D01*
X016504Y030968D02*
X016504Y030968D01*
X016831Y030968D02*
X017488Y030968D01*
X018000Y030968D02*
X018000Y030968D01*
X018512Y030968D02*
X019039Y030968D01*
X019500Y030968D02*
X019500Y030968D01*
X019961Y030968D02*
X023191Y030968D01*
X012500Y030888D02*
X012500Y030888D01*
X012929Y030888D02*
X013173Y030888D01*
X014000Y030888D02*
X014000Y030888D01*
X014827Y030888D02*
X015194Y030888D01*
X018000Y030888D02*
X018000Y030888D01*
X018512Y030888D02*
X019071Y030888D01*
X019500Y030888D02*
X019500Y030888D01*
X019929Y030888D02*
X023191Y030888D01*
X012500Y030809D02*
X012500Y030809D01*
X012872Y030809D02*
X013173Y030809D01*
X014000Y030809D02*
X014000Y030809D01*
X014827Y030809D02*
X015191Y030809D01*
X018000Y030809D02*
X018000Y030809D01*
X018512Y030809D02*
X019128Y030809D01*
X019500Y030809D02*
X019500Y030809D01*
X019872Y030809D02*
X023191Y030809D01*
X012500Y030730D02*
X012500Y030730D01*
X012788Y030730D02*
X013173Y030730D01*
X014000Y030730D02*
X014000Y030730D01*
X014827Y030730D02*
X015191Y030730D01*
X017809Y030730D02*
X019212Y030730D01*
X019500Y030730D02*
X019500Y030730D01*
X019788Y030730D02*
X023191Y030730D01*
X020050Y030651D02*
X023191Y030651D01*
X020059Y030572D02*
X023191Y030572D01*
X020059Y030493D02*
X023191Y030493D01*
X020059Y030414D02*
X023191Y030414D01*
X020059Y030334D02*
X023191Y030334D01*
X020059Y030255D02*
X023191Y030255D01*
X020060Y030176D02*
X020482Y030176D01*
X020064Y030097D02*
X020441Y030097D01*
X020059Y030018D02*
X020441Y030018D01*
X020059Y029939D02*
X020441Y029939D01*
X020059Y029860D02*
X020441Y029860D01*
X020059Y029781D02*
X020441Y029781D01*
X020059Y029701D02*
X020441Y029701D01*
X020059Y029622D02*
X020441Y029622D01*
X020059Y029543D02*
X020441Y029543D01*
X020059Y029464D02*
X020441Y029464D01*
X020059Y029385D02*
X020441Y029385D01*
X020059Y029306D02*
X020441Y029306D01*
X020059Y029227D02*
X020441Y029227D01*
X020059Y029147D02*
X020441Y029147D01*
X020059Y029068D02*
X020441Y029068D01*
X020059Y028989D02*
X020441Y028989D01*
X020059Y028910D02*
X020441Y028910D01*
X020059Y028831D02*
X020441Y028831D01*
X020059Y028752D02*
X020441Y028752D01*
X020072Y028673D02*
X020441Y028673D01*
X020105Y028594D02*
X020441Y028594D01*
X020131Y028514D02*
X020441Y028514D01*
X020141Y028435D02*
X020441Y028435D01*
X020148Y028356D02*
X020441Y028356D01*
X020138Y028277D02*
X020441Y028277D01*
X020126Y028198D02*
X020441Y028198D01*
X020093Y028119D02*
X020441Y028119D01*
X020059Y028040D02*
X020441Y028040D01*
X020059Y027960D02*
X020441Y027960D01*
X023194Y025353D02*
X022874Y025353D01*
X022874Y024994D01*
X023194Y024994D01*
X023194Y025353D01*
X023194Y024994D02*
X022874Y024994D01*
X022874Y024804D01*
X022874Y024804D01*
X022874Y024994D01*
X022809Y024994D01*
X022809Y024994D01*
X022874Y024994D01*
X022874Y025353D01*
X022809Y025353D01*
X022809Y025495D01*
X022807Y025510D01*
X022801Y025525D01*
X022792Y025537D01*
X022780Y025546D01*
X022765Y025552D01*
X022750Y025554D01*
X020309Y025554D01*
X020309Y026311D01*
X021750Y026311D01*
X021765Y026313D01*
X021780Y026319D01*
X021792Y026328D01*
X021801Y026340D01*
X021807Y026355D01*
X021809Y026370D01*
X021809Y027936D01*
X023066Y027936D01*
X023066Y026370D01*
X023068Y026355D01*
X023074Y026340D01*
X023083Y026328D01*
X023095Y026319D01*
X023110Y026313D01*
X023125Y026311D01*
X026316Y026311D01*
X026316Y025581D01*
X026000Y025581D01*
X026000Y025183D01*
X026512Y025183D01*
X026512Y025311D01*
X026921Y025311D01*
X026925Y025307D01*
X027082Y025242D01*
X027250Y025220D01*
X027418Y025242D01*
X027575Y025307D01*
X027579Y025311D01*
X028000Y025311D01*
X028015Y025313D01*
X028030Y025319D01*
X028042Y025328D01*
X028051Y025340D01*
X028057Y025355D01*
X028059Y025370D01*
X028059Y026186D01*
X031066Y026186D01*
X031066Y025600D01*
X031000Y025609D01*
X031000Y025120D01*
X031066Y025120D01*
X031066Y025120D01*
X031000Y025120D01*
X031000Y024804D01*
X031000Y024804D01*
X031000Y025120D01*
X030511Y025120D01*
X030528Y024994D01*
X030577Y024876D01*
X030631Y024804D01*
X026512Y024804D01*
X026512Y025183D01*
X026000Y025183D01*
X026000Y024804D01*
X026000Y024804D01*
X026000Y025183D01*
X025488Y025183D01*
X025488Y024804D01*
X025012Y024804D01*
X025012Y025183D01*
X024500Y025183D01*
X024500Y024804D01*
X024500Y024804D01*
X024500Y025183D01*
X023988Y025183D01*
X023988Y024804D01*
X023194Y024804D01*
X023194Y024994D01*
X023988Y025183D02*
X024500Y025183D01*
X024500Y025581D01*
X023988Y025581D01*
X023988Y025183D01*
X024500Y025183D02*
X025012Y025183D01*
X025012Y025581D01*
X024500Y025581D01*
X024500Y025183D01*
X025488Y025183D02*
X026000Y025183D01*
X026000Y025581D01*
X025488Y025581D01*
X025488Y025183D01*
X031000Y025120D02*
X031000Y025609D01*
X030873Y025592D01*
X030756Y025543D01*
X030654Y025466D01*
X030577Y025364D01*
X030528Y025247D01*
X030511Y025120D01*
X031000Y025120D01*
X021809Y027936D02*
X023066Y027936D01*
X021809Y027857D02*
X023066Y027857D01*
X021809Y027778D02*
X023066Y027778D01*
X021809Y027698D02*
X023066Y027698D01*
X021809Y027619D02*
X023066Y027619D01*
X021809Y027540D02*
X023066Y027540D01*
X021809Y027461D02*
X023066Y027461D01*
X021809Y027382D02*
X023066Y027382D01*
X021809Y027303D02*
X023066Y027303D01*
X021809Y027224D02*
X023066Y027224D01*
X021809Y027144D02*
X023066Y027144D01*
X021809Y027065D02*
X023066Y027065D01*
X021809Y026986D02*
X023066Y026986D01*
X021809Y026907D02*
X023066Y026907D01*
X021809Y026828D02*
X023066Y026828D01*
X021809Y026749D02*
X023066Y026749D01*
X021809Y026670D02*
X023066Y026670D01*
X021809Y026591D02*
X023066Y026591D01*
X021809Y026511D02*
X023066Y026511D01*
X021809Y026432D02*
X023066Y026432D01*
X021807Y026353D02*
X023068Y026353D01*
X020309Y026274D02*
X026316Y026274D01*
X020309Y026195D02*
X026316Y026195D01*
X020309Y026116D02*
X026316Y026116D01*
X028059Y026116D02*
X031066Y026116D01*
X020309Y026037D02*
X026316Y026037D01*
X028059Y026037D02*
X031066Y026037D01*
X020309Y025957D02*
X026316Y025957D01*
X028059Y025957D02*
X031066Y025957D01*
X020309Y025878D02*
X026316Y025878D01*
X028059Y025878D02*
X031066Y025878D01*
X020309Y025799D02*
X026316Y025799D01*
X028059Y025799D02*
X031066Y025799D01*
X020309Y025720D02*
X026316Y025720D01*
X028059Y025720D02*
X031066Y025720D01*
X020309Y025641D02*
X026316Y025641D01*
X028059Y025641D02*
X031066Y025641D01*
X020309Y025562D02*
X023988Y025562D01*
X024500Y025562D02*
X024500Y025562D01*
X025012Y025562D02*
X025488Y025562D01*
X026000Y025562D02*
X026000Y025562D01*
X028059Y025562D02*
X030800Y025562D01*
X031000Y025562D02*
X031000Y025562D01*
X022809Y025483D02*
X023988Y025483D01*
X024500Y025483D02*
X024500Y025483D01*
X025012Y025483D02*
X025488Y025483D01*
X026000Y025483D02*
X026000Y025483D01*
X028059Y025483D02*
X030676Y025483D01*
X031000Y025483D02*
X031000Y025483D01*
X022809Y025404D02*
X023988Y025404D01*
X024500Y025404D02*
X024500Y025404D01*
X025012Y025404D02*
X025488Y025404D01*
X026000Y025404D02*
X026000Y025404D01*
X028059Y025404D02*
X030607Y025404D01*
X031000Y025404D02*
X031000Y025404D01*
X022874Y025324D02*
X022874Y025324D01*
X023194Y025324D02*
X023988Y025324D01*
X024500Y025324D02*
X024500Y025324D01*
X025012Y025324D02*
X025488Y025324D01*
X026000Y025324D02*
X026000Y025324D01*
X028037Y025324D02*
X030560Y025324D01*
X031000Y025324D02*
X031000Y025324D01*
X022874Y025245D02*
X022874Y025245D01*
X023194Y025245D02*
X023988Y025245D01*
X024500Y025245D02*
X024500Y025245D01*
X025012Y025245D02*
X025488Y025245D01*
X026000Y025245D02*
X026000Y025245D01*
X026512Y025245D02*
X027075Y025245D01*
X027425Y025245D02*
X030528Y025245D01*
X031000Y025245D02*
X031000Y025245D01*
X022874Y025166D02*
X022874Y025166D01*
X023194Y025166D02*
X023988Y025166D01*
X024500Y025166D02*
X024500Y025166D01*
X025012Y025166D02*
X025488Y025166D01*
X026000Y025166D02*
X026000Y025166D01*
X026512Y025166D02*
X030517Y025166D01*
X031000Y025166D02*
X031000Y025166D01*
X022874Y025087D02*
X022874Y025087D01*
X023194Y025087D02*
X023988Y025087D01*
X024500Y025087D02*
X024500Y025087D01*
X025012Y025087D02*
X025488Y025087D01*
X026000Y025087D02*
X026000Y025087D01*
X026512Y025087D02*
X030516Y025087D01*
X031000Y025087D02*
X031000Y025087D01*
X022874Y025008D02*
X022874Y025008D01*
X023194Y025008D02*
X023988Y025008D01*
X024500Y025008D02*
X024500Y025008D01*
X025012Y025008D02*
X025488Y025008D01*
X026000Y025008D02*
X026000Y025008D01*
X026512Y025008D02*
X030526Y025008D01*
X031000Y025008D02*
X031000Y025008D01*
X022874Y024929D02*
X022874Y024929D01*
X023194Y024929D02*
X023988Y024929D01*
X024500Y024929D02*
X024500Y024929D01*
X025012Y024929D02*
X025488Y024929D01*
X026000Y024929D02*
X026000Y024929D01*
X026512Y024929D02*
X030555Y024929D01*
X031000Y024929D02*
X031000Y024929D01*
X022874Y024850D02*
X022874Y024850D01*
X023194Y024850D02*
X023988Y024850D01*
X024500Y024850D02*
X024500Y024850D01*
X025012Y024850D02*
X025488Y024850D01*
X026000Y024850D02*
X026000Y024850D01*
X026512Y024850D02*
X030597Y024850D01*
X031000Y024850D02*
X031000Y024850D01*
X027941Y026475D02*
X027902Y026459D01*
X027836Y026409D01*
X027786Y026344D01*
X027755Y026267D01*
X027744Y026186D01*
X027744Y025679D01*
X026631Y025679D01*
X026631Y026311D01*
X026620Y026392D01*
X026589Y026469D01*
X026559Y026507D01*
X026559Y026620D01*
X026557Y026635D01*
X026551Y026650D01*
X026542Y026662D01*
X026530Y026671D01*
X026515Y026677D01*
X026500Y026679D01*
X024427Y026679D01*
X024435Y026685D01*
X024532Y026813D01*
X024594Y026961D01*
X024615Y027120D01*
X024000Y027120D01*
X024000Y026679D01*
X024000Y026679D01*
X024000Y027120D01*
X023559Y027120D01*
X023559Y027120D01*
X024000Y027120D01*
X024000Y027811D01*
X024000Y027811D01*
X024000Y027120D01*
X024615Y027120D01*
X024594Y027279D01*
X024532Y027427D01*
X024435Y027555D01*
X024320Y027643D01*
X024512Y027643D01*
X024512Y027811D01*
X025250Y027811D01*
X025265Y027813D01*
X025280Y027819D01*
X025292Y027828D01*
X025301Y027840D01*
X025307Y027855D01*
X025309Y027870D01*
X025309Y032120D01*
X025307Y032135D01*
X025301Y032150D01*
X025292Y032162D01*
X025280Y032171D01*
X025265Y032177D01*
X025250Y032179D01*
X023363Y032179D01*
X023348Y032190D01*
X023272Y032222D01*
X023191Y032232D01*
X012059Y032232D01*
X011978Y032222D01*
X011902Y032190D01*
X011887Y032179D01*
X011500Y032179D01*
X011485Y032177D01*
X011470Y032171D01*
X011458Y032162D01*
X011449Y032150D01*
X011443Y032135D01*
X011441Y032120D01*
X011441Y030120D01*
X011443Y030105D01*
X011449Y030090D01*
X011458Y030078D01*
X011470Y030069D01*
X011485Y030063D01*
X011500Y030061D01*
X015614Y030061D01*
X015614Y029944D01*
X015941Y029944D01*
X015941Y029632D01*
X015921Y029632D01*
X015921Y029120D01*
X015941Y029120D01*
X015941Y029120D01*
X015921Y029120D01*
X015921Y028929D01*
X015921Y028929D01*
X015921Y029120D01*
X015523Y029120D01*
X015523Y028929D01*
X014827Y028929D01*
X014827Y029246D01*
X014000Y029246D01*
X014000Y028929D01*
X014000Y028929D01*
X014000Y029246D01*
X013173Y029246D01*
X013173Y028929D01*
X012946Y028929D01*
X012972Y028994D01*
X012989Y029120D01*
X012500Y029120D01*
X012500Y028929D01*
X012500Y028929D01*
X012500Y029120D01*
X012011Y029120D01*
X012028Y028994D01*
X012054Y028929D01*
X008059Y028929D01*
X008059Y032561D01*
X038941Y032561D01*
X038941Y018679D01*
X034427Y018679D01*
X034435Y018685D01*
X034532Y018813D01*
X034594Y018961D01*
X034615Y019120D01*
X034059Y019120D01*
X034059Y019120D01*
X034615Y019120D01*
X034594Y019279D01*
X034532Y019427D01*
X034435Y019555D01*
X034307Y019653D01*
X034159Y019714D01*
X034059Y019727D01*
X034059Y020811D01*
X035929Y020811D01*
X035929Y020620D01*
X036500Y020620D01*
X036500Y020811D01*
X036500Y020811D01*
X036500Y020620D01*
X037071Y020620D01*
X037071Y020811D01*
X037750Y020811D01*
X037765Y020813D01*
X037780Y020819D01*
X037792Y020828D01*
X037801Y020840D01*
X037807Y020855D01*
X037809Y020870D01*
X037809Y024461D01*
X037847Y024461D01*
X037847Y027717D01*
X037809Y027717D01*
X037809Y028461D01*
X037847Y028461D01*
X037847Y031717D01*
X036153Y031717D01*
X036153Y031679D01*
X028000Y031679D01*
X027985Y031677D01*
X027970Y031671D01*
X027958Y031662D01*
X027949Y031650D01*
X027943Y031635D01*
X027941Y031620D01*
X027941Y026475D01*
X015921Y029632D02*
X015523Y029632D01*
X015523Y029120D01*
X015921Y029120D01*
X015921Y029632D01*
X014827Y029758D02*
X014000Y029758D01*
X014000Y029246D01*
X014827Y029246D01*
X014827Y029758D01*
X035929Y020620D02*
X035929Y020049D01*
X036500Y020049D01*
X036500Y020620D01*
X035929Y020620D01*
X014000Y029758D02*
X013173Y029758D01*
X013173Y029246D01*
X014000Y029246D01*
X014000Y029758D01*
X036500Y020620D02*
X036500Y020049D01*
X037071Y020049D01*
X037071Y020620D01*
X036500Y020620D01*
X012989Y029120D02*
X012972Y029247D01*
X012923Y029364D01*
X012846Y029466D01*
X012744Y029543D01*
X012627Y029592D01*
X012500Y029609D01*
X012500Y029120D01*
X012989Y029120D01*
X012500Y029609D02*
X012373Y029592D01*
X012256Y029543D01*
X012154Y029466D01*
X012077Y029364D01*
X012028Y029247D01*
X012011Y029120D01*
X012500Y029120D01*
X012500Y029609D01*
X008059Y032561D02*
X038941Y032561D01*
X008059Y032482D02*
X038941Y032482D01*
X008059Y032403D02*
X038941Y032403D01*
X008059Y032323D02*
X038941Y032323D01*
X008059Y032244D02*
X038941Y032244D01*
X008059Y032165D02*
X011462Y032165D01*
X025288Y032165D02*
X038941Y032165D01*
X008059Y032086D02*
X011441Y032086D01*
X025309Y032086D02*
X038941Y032086D01*
X008059Y032007D02*
X011441Y032007D01*
X025309Y032007D02*
X038941Y032007D01*
X008059Y031928D02*
X011441Y031928D01*
X025309Y031928D02*
X038941Y031928D01*
X008059Y031849D02*
X011441Y031849D01*
X025309Y031849D02*
X038941Y031849D01*
X008059Y031769D02*
X011441Y031769D01*
X025309Y031769D02*
X038941Y031769D01*
X008059Y031690D02*
X011441Y031690D01*
X025309Y031690D02*
X036153Y031690D01*
X037847Y031690D02*
X038941Y031690D01*
X008059Y031611D02*
X011441Y031611D01*
X025309Y031611D02*
X027941Y031611D01*
X037847Y031611D02*
X038941Y031611D01*
X008059Y031532D02*
X011441Y031532D01*
X025309Y031532D02*
X027941Y031532D01*
X037847Y031532D02*
X038941Y031532D01*
X008059Y031453D02*
X011441Y031453D01*
X025309Y031453D02*
X027941Y031453D01*
X037847Y031453D02*
X038941Y031453D01*
X008059Y031374D02*
X011441Y031374D01*
X025309Y031374D02*
X027941Y031374D01*
X037847Y031374D02*
X038941Y031374D01*
X008059Y031295D02*
X011441Y031295D01*
X025309Y031295D02*
X027941Y031295D01*
X037847Y031295D02*
X038941Y031295D01*
X008059Y031216D02*
X011441Y031216D01*
X025309Y031216D02*
X027941Y031216D01*
X037847Y031216D02*
X038941Y031216D01*
X008059Y031136D02*
X011441Y031136D01*
X025309Y031136D02*
X027941Y031136D01*
X037847Y031136D02*
X038941Y031136D01*
X008059Y031057D02*
X011441Y031057D01*
X025309Y031057D02*
X027941Y031057D01*
X037847Y031057D02*
X038941Y031057D01*
X008059Y030978D02*
X011441Y030978D01*
X025309Y030978D02*
X027941Y030978D01*
X037847Y030978D02*
X038941Y030978D01*
X008059Y030899D02*
X011441Y030899D01*
X025309Y030899D02*
X027941Y030899D01*
X037847Y030899D02*
X038941Y030899D01*
X008059Y030820D02*
X011441Y030820D01*
X025309Y030820D02*
X027941Y030820D01*
X037847Y030820D02*
X038941Y030820D01*
X008059Y030741D02*
X011441Y030741D01*
X025309Y030741D02*
X027941Y030741D01*
X037847Y030741D02*
X038941Y030741D01*
X008059Y030662D02*
X011441Y030662D01*
X025309Y030662D02*
X027941Y030662D01*
X037847Y030662D02*
X038941Y030662D01*
X008059Y030582D02*
X011441Y030582D01*
X025309Y030582D02*
X027941Y030582D01*
X037847Y030582D02*
X038941Y030582D01*
X008059Y030503D02*
X011441Y030503D01*
X025309Y030503D02*
X027941Y030503D01*
X037847Y030503D02*
X038941Y030503D01*
X008059Y030424D02*
X011441Y030424D01*
X025309Y030424D02*
X027941Y030424D01*
X037847Y030424D02*
X038941Y030424D01*
X008059Y030345D02*
X011441Y030345D01*
X025309Y030345D02*
X027941Y030345D01*
X037847Y030345D02*
X038941Y030345D01*
X008059Y030266D02*
X011441Y030266D01*
X025309Y030266D02*
X027941Y030266D01*
X037847Y030266D02*
X038941Y030266D01*
X008059Y030187D02*
X011441Y030187D01*
X025309Y030187D02*
X027941Y030187D01*
X037847Y030187D02*
X038941Y030187D01*
X008059Y030108D02*
X011442Y030108D01*
X025309Y030108D02*
X027941Y030108D01*
X037847Y030108D02*
X038941Y030108D01*
X008059Y030029D02*
X015614Y030029D01*
X025309Y030029D02*
X027941Y030029D01*
X037847Y030029D02*
X038941Y030029D01*
X008059Y029949D02*
X015614Y029949D01*
X025309Y029949D02*
X027941Y029949D01*
X037847Y029949D02*
X038941Y029949D01*
X008059Y029870D02*
X015941Y029870D01*
X025309Y029870D02*
X027941Y029870D01*
X037847Y029870D02*
X038941Y029870D01*
X008059Y029791D02*
X015941Y029791D01*
X025309Y029791D02*
X027941Y029791D01*
X037847Y029791D02*
X038941Y029791D01*
X008059Y029712D02*
X013173Y029712D01*
X014000Y029712D02*
X014000Y029712D01*
X014827Y029712D02*
X015941Y029712D01*
X025309Y029712D02*
X027941Y029712D01*
X037847Y029712D02*
X038941Y029712D01*
X008059Y029633D02*
X013173Y029633D01*
X014000Y029633D02*
X014000Y029633D01*
X014827Y029633D02*
X015941Y029633D01*
X025309Y029633D02*
X027941Y029633D01*
X037847Y029633D02*
X038941Y029633D01*
X008059Y029554D02*
X012281Y029554D01*
X012500Y029554D02*
X012500Y029554D01*
X012719Y029554D02*
X013173Y029554D01*
X014000Y029554D02*
X014000Y029554D01*
X014827Y029554D02*
X015523Y029554D01*
X015921Y029554D02*
X015921Y029554D01*
X025309Y029554D02*
X027941Y029554D01*
X037847Y029554D02*
X038941Y029554D01*
X008059Y029475D02*
X012166Y029475D01*
X012500Y029475D02*
X012500Y029475D01*
X012834Y029475D02*
X013173Y029475D01*
X014000Y029475D02*
X014000Y029475D01*
X014827Y029475D02*
X015523Y029475D01*
X015921Y029475D02*
X015921Y029475D01*
X025309Y029475D02*
X027941Y029475D01*
X037847Y029475D02*
X038941Y029475D01*
X008059Y029395D02*
X012100Y029395D01*
X012500Y029395D02*
X012500Y029395D01*
X012900Y029395D02*
X013173Y029395D01*
X014000Y029395D02*
X014000Y029395D01*
X014827Y029395D02*
X015523Y029395D01*
X015921Y029395D02*
X015921Y029395D01*
X025309Y029395D02*
X027941Y029395D01*
X037847Y029395D02*
X038941Y029395D01*
X008059Y029316D02*
X012057Y029316D01*
X012500Y029316D02*
X012500Y029316D01*
X012943Y029316D02*
X013173Y029316D01*
X014000Y029316D02*
X014000Y029316D01*
X014827Y029316D02*
X015523Y029316D01*
X015921Y029316D02*
X015921Y029316D01*
X025309Y029316D02*
X027941Y029316D01*
X037847Y029316D02*
X038941Y029316D01*
X008059Y029237D02*
X012027Y029237D01*
X012500Y029237D02*
X012500Y029237D01*
X012973Y029237D02*
X013173Y029237D01*
X014000Y029237D02*
X014000Y029237D01*
X014827Y029237D02*
X015523Y029237D01*
X015921Y029237D02*
X015921Y029237D01*
X025309Y029237D02*
X027941Y029237D01*
X037847Y029237D02*
X038941Y029237D01*
X008059Y029158D02*
X012016Y029158D01*
X012500Y029158D02*
X012500Y029158D01*
X012984Y029158D02*
X013173Y029158D01*
X014000Y029158D02*
X014000Y029158D01*
X014827Y029158D02*
X015523Y029158D01*
X015921Y029158D02*
X015921Y029158D01*
X025309Y029158D02*
X027941Y029158D01*
X037847Y029158D02*
X038941Y029158D01*
X008059Y029079D02*
X012017Y029079D01*
X012500Y029079D02*
X012500Y029079D01*
X012983Y029079D02*
X013173Y029079D01*
X014000Y029079D02*
X014000Y029079D01*
X014827Y029079D02*
X015523Y029079D01*
X015921Y029079D02*
X015921Y029079D01*
X025309Y029079D02*
X027941Y029079D01*
X037847Y029079D02*
X038941Y029079D01*
X008059Y029000D02*
X012027Y029000D01*
X012500Y029000D02*
X012500Y029000D01*
X012973Y029000D02*
X013173Y029000D01*
X014000Y029000D02*
X014000Y029000D01*
X014827Y029000D02*
X015523Y029000D01*
X015921Y029000D02*
X015921Y029000D01*
X025309Y029000D02*
X027941Y029000D01*
X037847Y029000D02*
X038941Y029000D01*
X025309Y028921D02*
X027941Y028921D01*
X037847Y028921D02*
X038941Y028921D01*
X025309Y028842D02*
X027941Y028842D01*
X037847Y028842D02*
X038941Y028842D01*
X025309Y028762D02*
X027941Y028762D01*
X037847Y028762D02*
X038941Y028762D01*
X025309Y028683D02*
X027941Y028683D01*
X037847Y028683D02*
X038941Y028683D01*
X025309Y028604D02*
X027941Y028604D01*
X037847Y028604D02*
X038941Y028604D01*
X025309Y028525D02*
X027941Y028525D01*
X037847Y028525D02*
X038941Y028525D01*
X025309Y028446D02*
X027941Y028446D01*
X037809Y028446D02*
X038941Y028446D01*
X025309Y028367D02*
X027941Y028367D01*
X037809Y028367D02*
X038941Y028367D01*
X025309Y028288D02*
X027941Y028288D01*
X037809Y028288D02*
X038941Y028288D01*
X025309Y028208D02*
X027941Y028208D01*
X037809Y028208D02*
X038941Y028208D01*
X025309Y028129D02*
X027941Y028129D01*
X037809Y028129D02*
X038941Y028129D01*
X025309Y028050D02*
X027941Y028050D01*
X037809Y028050D02*
X038941Y028050D01*
X025309Y027971D02*
X027941Y027971D01*
X037809Y027971D02*
X038941Y027971D01*
X025309Y027892D02*
X027941Y027892D01*
X037809Y027892D02*
X038941Y027892D01*
X025265Y027813D02*
X027941Y027813D01*
X037809Y027813D02*
X038941Y027813D01*
X024000Y027734D02*
X024000Y027734D01*
X024512Y027734D02*
X027941Y027734D01*
X037809Y027734D02*
X038941Y027734D01*
X024000Y027655D02*
X024000Y027655D01*
X024512Y027655D02*
X027941Y027655D01*
X037847Y027655D02*
X038941Y027655D01*
X024000Y027575D02*
X024000Y027575D01*
X024408Y027575D02*
X027941Y027575D01*
X037847Y027575D02*
X038941Y027575D01*
X024000Y027496D02*
X024000Y027496D01*
X024480Y027496D02*
X027941Y027496D01*
X037847Y027496D02*
X038941Y027496D01*
X024000Y027417D02*
X024000Y027417D01*
X024537Y027417D02*
X027941Y027417D01*
X037847Y027417D02*
X038941Y027417D01*
X024000Y027338D02*
X024000Y027338D01*
X024569Y027338D02*
X027941Y027338D01*
X037847Y027338D02*
X038941Y027338D01*
X024000Y027259D02*
X024000Y027259D01*
X024597Y027259D02*
X027941Y027259D01*
X037847Y027259D02*
X038941Y027259D01*
X024000Y027180D02*
X024000Y027180D01*
X024607Y027180D02*
X027941Y027180D01*
X037847Y027180D02*
X038941Y027180D01*
X024000Y027101D02*
X024000Y027101D01*
X024612Y027101D02*
X027941Y027101D01*
X037847Y027101D02*
X038941Y027101D01*
X024000Y027021D02*
X024000Y027021D01*
X024602Y027021D02*
X027941Y027021D01*
X037847Y027021D02*
X038941Y027021D01*
X024000Y026942D02*
X024000Y026942D01*
X024586Y026942D02*
X027941Y026942D01*
X037847Y026942D02*
X038941Y026942D01*
X024000Y026863D02*
X024000Y026863D01*
X024553Y026863D02*
X027941Y026863D01*
X037847Y026863D02*
X038941Y026863D01*
X024000Y026784D02*
X024000Y026784D01*
X024510Y026784D02*
X027941Y026784D01*
X037847Y026784D02*
X038941Y026784D01*
X024000Y026705D02*
X024000Y026705D01*
X024450Y026705D02*
X027941Y026705D01*
X037847Y026705D02*
X038941Y026705D01*
X026559Y026626D02*
X027941Y026626D01*
X037847Y026626D02*
X038941Y026626D01*
X026559Y026547D02*
X027941Y026547D01*
X037847Y026547D02*
X038941Y026547D01*
X026589Y026468D02*
X027922Y026468D01*
X037847Y026468D02*
X038941Y026468D01*
X026621Y026388D02*
X027821Y026388D01*
X037847Y026388D02*
X038941Y026388D01*
X026631Y026309D02*
X027772Y026309D01*
X037847Y026309D02*
X038941Y026309D01*
X026631Y026230D02*
X027750Y026230D01*
X037847Y026230D02*
X038941Y026230D01*
X026631Y026151D02*
X027744Y026151D01*
X037847Y026151D02*
X038941Y026151D01*
X026631Y026072D02*
X027744Y026072D01*
X037847Y026072D02*
X038941Y026072D01*
X026631Y025993D02*
X027744Y025993D01*
X037847Y025993D02*
X038941Y025993D01*
X026631Y025914D02*
X027744Y025914D01*
X037847Y025914D02*
X038941Y025914D01*
X026631Y025834D02*
X027744Y025834D01*
X037847Y025834D02*
X038941Y025834D01*
X026631Y025755D02*
X027744Y025755D01*
X037847Y025755D02*
X038941Y025755D01*
X037847Y025676D02*
X038941Y025676D01*
X037847Y025597D02*
X038941Y025597D01*
X037847Y025518D02*
X038941Y025518D01*
X037847Y025439D02*
X038941Y025439D01*
X037847Y025360D02*
X038941Y025360D01*
X037847Y025281D02*
X038941Y025281D01*
X037847Y025201D02*
X038941Y025201D01*
X037847Y025122D02*
X038941Y025122D01*
X037847Y025043D02*
X038941Y025043D01*
X037847Y024964D02*
X038941Y024964D01*
X037847Y024885D02*
X038941Y024885D01*
X037847Y024806D02*
X038941Y024806D01*
X037847Y024727D02*
X038941Y024727D01*
X037847Y024647D02*
X038941Y024647D01*
X037847Y024568D02*
X038941Y024568D01*
X037847Y024489D02*
X038941Y024489D01*
X037809Y024410D02*
X038941Y024410D01*
X037809Y024331D02*
X038941Y024331D01*
X037809Y024252D02*
X038941Y024252D01*
X037809Y024173D02*
X038941Y024173D01*
X037809Y024094D02*
X038941Y024094D01*
X037809Y024014D02*
X038941Y024014D01*
X037809Y023935D02*
X038941Y023935D01*
X037809Y023856D02*
X038941Y023856D01*
X037809Y023777D02*
X038941Y023777D01*
X037809Y023698D02*
X038941Y023698D01*
X037809Y023619D02*
X038941Y023619D01*
X037809Y023540D02*
X038941Y023540D01*
X037809Y023460D02*
X038941Y023460D01*
X037809Y023381D02*
X038941Y023381D01*
X037809Y023302D02*
X038941Y023302D01*
X037809Y023223D02*
X038941Y023223D01*
X037809Y023144D02*
X038941Y023144D01*
X037809Y023065D02*
X038941Y023065D01*
X037809Y022986D02*
X038941Y022986D01*
X037809Y022906D02*
X038941Y022906D01*
X037809Y022827D02*
X038941Y022827D01*
X037809Y022748D02*
X038941Y022748D01*
X037809Y022669D02*
X038941Y022669D01*
X037809Y022590D02*
X038941Y022590D01*
X037809Y022511D02*
X038941Y022511D01*
X037809Y022432D02*
X038941Y022432D01*
X037809Y022353D02*
X038941Y022353D01*
X037809Y022273D02*
X038941Y022273D01*
X037809Y022194D02*
X038941Y022194D01*
X037809Y022115D02*
X038941Y022115D01*
X037809Y022036D02*
X038941Y022036D01*
X037809Y021957D02*
X038941Y021957D01*
X037809Y021878D02*
X038941Y021878D01*
X037809Y021799D02*
X038941Y021799D01*
X037809Y021719D02*
X038941Y021719D01*
X037809Y021640D02*
X038941Y021640D01*
X037809Y021561D02*
X038941Y021561D01*
X037809Y021482D02*
X038941Y021482D01*
X037809Y021403D02*
X038941Y021403D01*
X037809Y021324D02*
X038941Y021324D01*
X037809Y021245D02*
X038941Y021245D01*
X037809Y021166D02*
X038941Y021166D01*
X037809Y021086D02*
X038941Y021086D01*
X037809Y021007D02*
X038941Y021007D01*
X037809Y020928D02*
X038941Y020928D01*
X037805Y020849D02*
X038941Y020849D01*
X034059Y020770D02*
X035929Y020770D01*
X036500Y020770D02*
X036500Y020770D01*
X037071Y020770D02*
X038941Y020770D01*
X034059Y020691D02*
X035929Y020691D01*
X036500Y020691D02*
X036500Y020691D01*
X037071Y020691D02*
X038941Y020691D01*
X034059Y020612D02*
X035929Y020612D01*
X036500Y020612D02*
X036500Y020612D01*
X037071Y020612D02*
X038941Y020612D01*
X034059Y020532D02*
X035929Y020532D01*
X036500Y020532D02*
X036500Y020532D01*
X037071Y020532D02*
X038941Y020532D01*
X034059Y020453D02*
X035929Y020453D01*
X036500Y020453D02*
X036500Y020453D01*
X037071Y020453D02*
X038941Y020453D01*
X034059Y020374D02*
X035929Y020374D01*
X036500Y020374D02*
X036500Y020374D01*
X037071Y020374D02*
X038941Y020374D01*
X034059Y020295D02*
X035929Y020295D01*
X036500Y020295D02*
X036500Y020295D01*
X037071Y020295D02*
X038941Y020295D01*
X034059Y020216D02*
X035929Y020216D01*
X036500Y020216D02*
X036500Y020216D01*
X037071Y020216D02*
X038941Y020216D01*
X034059Y020137D02*
X035929Y020137D01*
X036500Y020137D02*
X036500Y020137D01*
X037071Y020137D02*
X038941Y020137D01*
X034059Y020058D02*
X035929Y020058D01*
X036500Y020058D02*
X036500Y020058D01*
X037071Y020058D02*
X038941Y020058D01*
X034059Y019979D02*
X038941Y019979D01*
X034059Y019899D02*
X038941Y019899D01*
X034059Y019820D02*
X038941Y019820D01*
X034059Y019741D02*
X038941Y019741D01*
X034284Y019662D02*
X038941Y019662D01*
X034398Y019583D02*
X038941Y019583D01*
X034474Y019504D02*
X038941Y019504D01*
X034534Y019425D02*
X038941Y019425D01*
X034566Y019345D02*
X038941Y019345D01*
X034596Y019266D02*
X038941Y019266D01*
X034606Y019187D02*
X038941Y019187D01*
X034613Y019108D02*
X038941Y019108D01*
X034603Y019029D02*
X038941Y019029D01*
X034589Y018950D02*
X038941Y018950D01*
X034556Y018871D02*
X038941Y018871D01*
X034516Y018792D02*
X038941Y018792D01*
X034455Y018712D02*
X038941Y018712D01*
X025559Y023561D02*
X027441Y023561D01*
X027441Y018929D01*
X026250Y018929D01*
X026235Y018927D01*
X026220Y018921D01*
X026208Y018912D01*
X026199Y018900D01*
X026193Y018885D01*
X026191Y018870D01*
X026191Y013638D01*
X025718Y012929D01*
X024581Y012929D01*
X024594Y012961D01*
X024615Y013120D01*
X024000Y013120D01*
X024000Y012929D01*
X024000Y012929D01*
X024000Y013120D01*
X023809Y013120D01*
X023809Y013120D01*
X024000Y013120D01*
X024000Y014041D01*
X023809Y014041D01*
X023809Y014041D01*
X024000Y014041D01*
X024000Y014061D01*
X024000Y014061D01*
X024000Y014041D01*
X024512Y014041D01*
X024512Y014061D01*
X025500Y014061D01*
X025515Y014063D01*
X025530Y014069D01*
X025542Y014078D01*
X025551Y014090D01*
X025557Y014105D01*
X025559Y014120D01*
X025559Y018870D01*
X025557Y018885D01*
X025551Y018900D01*
X025542Y018912D01*
X025530Y018921D01*
X025515Y018927D01*
X025500Y018929D01*
X024581Y018929D01*
X024594Y018961D01*
X024615Y019120D01*
X024000Y019120D01*
X024000Y018929D01*
X024000Y018929D01*
X024000Y019120D01*
X023809Y019120D01*
X023809Y019120D01*
X024000Y019120D01*
X024000Y020041D01*
X023809Y020041D01*
X023809Y020041D01*
X024000Y020041D01*
X024000Y020061D01*
X024000Y020061D01*
X024000Y020041D01*
X024512Y020041D01*
X024512Y020061D01*
X025500Y020061D01*
X025515Y020063D01*
X025530Y020069D01*
X025542Y020078D01*
X025551Y020090D01*
X025557Y020105D01*
X025559Y020120D01*
X025559Y023561D01*
X024512Y020041D02*
X024000Y020041D01*
X024000Y019120D01*
X024615Y019120D01*
X024594Y019279D01*
X024532Y019427D01*
X024435Y019555D01*
X024320Y019643D01*
X024512Y019643D01*
X024512Y020041D01*
X024512Y014041D02*
X024000Y014041D01*
X024000Y013120D01*
X024615Y013120D01*
X024594Y013279D01*
X024532Y013427D01*
X024435Y013555D01*
X024320Y013643D01*
X024512Y013643D01*
X024512Y014041D01*
X025559Y023561D02*
X027441Y023561D01*
X025559Y023482D02*
X027441Y023482D01*
X025559Y023403D02*
X027441Y023403D01*
X025559Y023323D02*
X027441Y023323D01*
X025559Y023244D02*
X027441Y023244D01*
X025559Y023165D02*
X027441Y023165D01*
X025559Y023086D02*
X027441Y023086D01*
X025559Y023007D02*
X027441Y023007D01*
X025559Y022928D02*
X027441Y022928D01*
X025559Y022849D02*
X027441Y022849D01*
X025559Y022769D02*
X027441Y022769D01*
X025559Y022690D02*
X027441Y022690D01*
X025559Y022611D02*
X027441Y022611D01*
X025559Y022532D02*
X027441Y022532D01*
X025559Y022453D02*
X027441Y022453D01*
X025559Y022374D02*
X027441Y022374D01*
X025559Y022295D02*
X027441Y022295D01*
X025559Y022216D02*
X027441Y022216D01*
X025559Y022136D02*
X027441Y022136D01*
X025559Y022057D02*
X027441Y022057D01*
X025559Y021978D02*
X027441Y021978D01*
X025559Y021899D02*
X027441Y021899D01*
X025559Y021820D02*
X027441Y021820D01*
X025559Y021741D02*
X027441Y021741D01*
X025559Y021662D02*
X027441Y021662D01*
X025559Y021582D02*
X027441Y021582D01*
X025559Y021503D02*
X027441Y021503D01*
X025559Y021424D02*
X027441Y021424D01*
X025559Y021345D02*
X027441Y021345D01*
X025559Y021266D02*
X027441Y021266D01*
X025559Y021187D02*
X027441Y021187D01*
X025559Y021108D02*
X027441Y021108D01*
X025559Y021029D02*
X027441Y021029D01*
X025559Y020949D02*
X027441Y020949D01*
X025559Y020870D02*
X027441Y020870D01*
X025559Y020791D02*
X027441Y020791D01*
X025559Y020712D02*
X027441Y020712D01*
X025559Y020633D02*
X027441Y020633D01*
X025559Y020554D02*
X027441Y020554D01*
X025559Y020475D02*
X027441Y020475D01*
X025559Y020395D02*
X027441Y020395D01*
X025559Y020316D02*
X027441Y020316D01*
X025559Y020237D02*
X027441Y020237D01*
X025559Y020158D02*
X027441Y020158D01*
X025542Y020079D02*
X027441Y020079D01*
X024000Y020000D02*
X024000Y020000D01*
X024512Y020000D02*
X027441Y020000D01*
X024000Y019921D02*
X024000Y019921D01*
X024512Y019921D02*
X027441Y019921D01*
X024000Y019842D02*
X024000Y019842D01*
X024512Y019842D02*
X027441Y019842D01*
X024000Y019762D02*
X024000Y019762D01*
X024512Y019762D02*
X027441Y019762D01*
X024000Y019683D02*
X024000Y019683D01*
X024512Y019683D02*
X027441Y019683D01*
X024000Y019604D02*
X024000Y019604D01*
X024370Y019604D02*
X027441Y019604D01*
X024000Y019525D02*
X024000Y019525D01*
X024458Y019525D02*
X027441Y019525D01*
X024000Y019446D02*
X024000Y019446D01*
X024518Y019446D02*
X027441Y019446D01*
X024000Y019367D02*
X024000Y019367D01*
X024558Y019367D02*
X027441Y019367D01*
X024000Y019288D02*
X024000Y019288D01*
X024590Y019288D02*
X027441Y019288D01*
X024000Y019208D02*
X024000Y019208D01*
X024603Y019208D02*
X027441Y019208D01*
X024000Y019129D02*
X024000Y019129D01*
X024614Y019129D02*
X027441Y019129D01*
X024000Y019050D02*
X024000Y019050D01*
X024606Y019050D02*
X027441Y019050D01*
X024000Y018971D02*
X024000Y018971D01*
X024595Y018971D02*
X027441Y018971D01*
X025555Y018892D02*
X026195Y018892D01*
X025559Y018813D02*
X026191Y018813D01*
X025559Y018734D02*
X026191Y018734D01*
X025559Y018655D02*
X026191Y018655D01*
X025559Y018575D02*
X026191Y018575D01*
X025559Y018496D02*
X026191Y018496D01*
X025559Y018417D02*
X026191Y018417D01*
X025559Y018338D02*
X026191Y018338D01*
X025559Y018259D02*
X026191Y018259D01*
X025559Y018180D02*
X026191Y018180D01*
X025559Y018101D02*
X026191Y018101D01*
X025559Y018021D02*
X026191Y018021D01*
X025559Y017942D02*
X026191Y017942D01*
X025559Y017863D02*
X026191Y017863D01*
X025559Y017784D02*
X026191Y017784D01*
X025559Y017705D02*
X026191Y017705D01*
X025559Y017626D02*
X026191Y017626D01*
X025559Y017547D02*
X026191Y017547D01*
X025559Y017468D02*
X026191Y017468D01*
X025559Y017388D02*
X026191Y017388D01*
X025559Y017309D02*
X026191Y017309D01*
X025559Y017230D02*
X026191Y017230D01*
X025559Y017151D02*
X026191Y017151D01*
X025559Y017072D02*
X026191Y017072D01*
X025559Y016993D02*
X026191Y016993D01*
X025559Y016914D02*
X026191Y016914D01*
X025559Y016834D02*
X026191Y016834D01*
X025559Y016755D02*
X026191Y016755D01*
X025559Y016676D02*
X026191Y016676D01*
X025559Y016597D02*
X026191Y016597D01*
X025559Y016518D02*
X026191Y016518D01*
X025559Y016439D02*
X026191Y016439D01*
X025559Y016360D02*
X026191Y016360D01*
X025559Y016281D02*
X026191Y016281D01*
X025559Y016201D02*
X026191Y016201D01*
X025559Y016122D02*
X026191Y016122D01*
X025559Y016043D02*
X026191Y016043D01*
X025559Y015964D02*
X026191Y015964D01*
X025559Y015885D02*
X026191Y015885D01*
X025559Y015806D02*
X026191Y015806D01*
X025559Y015727D02*
X026191Y015727D01*
X025559Y015647D02*
X026191Y015647D01*
X025559Y015568D02*
X026191Y015568D01*
X025559Y015489D02*
X026191Y015489D01*
X025559Y015410D02*
X026191Y015410D01*
X025559Y015331D02*
X026191Y015331D01*
X025559Y015252D02*
X026191Y015252D01*
X025559Y015173D02*
X026191Y015173D01*
X025559Y015094D02*
X026191Y015094D01*
X025559Y015014D02*
X026191Y015014D01*
X025559Y014935D02*
X026191Y014935D01*
X025559Y014856D02*
X026191Y014856D01*
X025559Y014777D02*
X026191Y014777D01*
X025559Y014698D02*
X026191Y014698D01*
X025559Y014619D02*
X026191Y014619D01*
X025559Y014540D02*
X026191Y014540D01*
X025559Y014460D02*
X026191Y014460D01*
X025559Y014381D02*
X026191Y014381D01*
X025559Y014302D02*
X026191Y014302D01*
X025559Y014223D02*
X026191Y014223D01*
X025559Y014144D02*
X026191Y014144D01*
X025520Y014065D02*
X026191Y014065D01*
X024000Y013986D02*
X024000Y013986D01*
X024512Y013986D02*
X026191Y013986D01*
X024000Y013906D02*
X024000Y013906D01*
X024512Y013906D02*
X026191Y013906D01*
X024000Y013827D02*
X024000Y013827D01*
X024512Y013827D02*
X026191Y013827D01*
X024000Y013748D02*
X024000Y013748D01*
X024512Y013748D02*
X026191Y013748D01*
X024000Y013669D02*
X024000Y013669D01*
X024512Y013669D02*
X026191Y013669D01*
X024000Y013590D02*
X024000Y013590D01*
X024389Y013590D02*
X026159Y013590D01*
X024000Y013511D02*
X024000Y013511D01*
X024468Y013511D02*
X026106Y013511D01*
X024000Y013432D02*
X024000Y013432D01*
X024529Y013432D02*
X026053Y013432D01*
X024000Y013353D02*
X024000Y013353D01*
X024563Y013353D02*
X026000Y013353D01*
X024000Y013273D02*
X024000Y013273D01*
X024595Y013273D02*
X025948Y013273D01*
X024000Y013194D02*
X024000Y013194D01*
X024605Y013194D02*
X025895Y013194D01*
X024000Y013115D02*
X024000Y013115D01*
X024614Y013115D02*
X025842Y013115D01*
X024000Y013036D02*
X024000Y013036D01*
X024604Y013036D02*
X025789Y013036D01*
X024000Y012957D02*
X024000Y012957D01*
X024592Y012957D02*
X025737Y012957D01*
M02*
