G04                                                                  *
G04 SOURCE        : LAYO1 PCB.EXE VERSION 10                         *
G04 FORMAT        : GERBER RS-274X, Inch, 2.4, Leading Zero          *
G04 TITLE         : CNC3018SWITCHER_SILKSCREEN TOP                   *
G04 TIME          : Thursday, May 11, 2023  21:45:25                 *
G04                                                                  *
G04 Board width   : 120.000 mm. =  4.7244 inch                       *
G04 Board height  : 100.000 mm. =  3.9370 inch                       *
G04 Board offset  :   0.000 mm. =  0.0000 inch                       *
G04 Board offset  :   0.000 mm. =  0.0000 inch                       *
G04                                                                  *
G04 Apertures:                                                       *
G04       Type          X       Y             X       Y        Used  *
G04                      Inches                Metric                *
G04 D10   Draw        0.0118  0.0118        0.300   0.300       602  *
G04 D11   Draw        0.0079  0.0079        0.200   0.200       617  *
G04 D12   Draw        0.0157  0.0157        0.400   0.400        16  *
G04                                                                  *
%FSLAX24Y24*
MOIN*
SFA1.0B1.0*%
%ADD10C,0.0118*%
%ADD11C,0.0079*%
%ADD12C,0.0157*%
%LNSILKSCREEN TOP*%
G54D10*
X012000Y018370D02*
X015500Y018370D01*
X011500Y019620D02*
X011500Y022120D01*
X010500Y018120D02*
X010500Y024370D01*
X019500Y027870D02*
X019500Y026370D01*
X027250Y025370D02*
X027250Y023870D01*
X029000Y024620D02*
X029000Y023870D01*
X039762Y029684D02*
X039250Y029684D01*
X039250Y029620D02*
X039250Y029748D01*
X039762Y029620D02*
X039762Y029748D01*
X039762Y029876D02*
X039442Y029876D01*
X039506Y029876D02*
X039442Y029940D01*
X039442Y030132D01*
X039506Y030196D01*
X039762Y030196D01*
X039762Y030324D02*
X039762Y030452D01*
X039762Y030388D02*
X039250Y030388D01*
X039314Y030324D01*
X039762Y025690D02*
X039762Y025434D01*
X039698Y025370D01*
X039314Y025370D01*
X039250Y025434D01*
X039250Y025690D01*
X039314Y025754D01*
X039698Y025754D01*
X039762Y025690D01*
X039442Y025882D02*
X039698Y025882D01*
X039762Y025946D01*
X039762Y026138D01*
X039698Y026202D01*
X039442Y026202D02*
X039762Y026202D01*
X039250Y026330D02*
X039698Y026330D01*
X039762Y026394D01*
X039762Y026522D01*
X039698Y026585D01*
X039442Y026330D02*
X039442Y026458D01*
X039762Y026713D02*
X039762Y026841D01*
X039762Y026777D02*
X039250Y026777D01*
X039314Y026713D01*
X034064Y011108D02*
X034064Y011620D01*
X034000Y011620D02*
X034128Y011620D01*
X034000Y011108D02*
X034128Y011108D01*
X034256Y011108D02*
X034256Y011428D01*
X034256Y011364D02*
X034320Y011428D01*
X034512Y011428D01*
X034576Y011364D01*
X034576Y011108D01*
X035087Y011108D02*
X034704Y011108D01*
X034704Y011236D01*
X034832Y011364D01*
X035023Y011364D01*
X035087Y011428D01*
X035087Y011556D01*
X035023Y011620D01*
X034768Y011620D01*
X034704Y011556D01*
X028070Y011108D02*
X027814Y011108D01*
X027750Y011172D01*
X027750Y011556D01*
X027814Y011620D01*
X028070Y011620D01*
X028134Y011556D01*
X028134Y011172D01*
X028070Y011108D01*
X028262Y011428D02*
X028262Y011172D01*
X028326Y011108D01*
X028518Y011108D01*
X028582Y011172D01*
X028582Y011428D02*
X028582Y011108D01*
X028710Y011620D02*
X028710Y011172D01*
X028773Y011108D01*
X028901Y011108D01*
X028965Y011172D01*
X028710Y011428D02*
X028837Y011428D01*
X029477Y011108D02*
X029093Y011108D01*
X029093Y011236D01*
X029221Y011364D01*
X029413Y011364D01*
X029477Y011428D01*
X029477Y011556D01*
X029413Y011620D01*
X029157Y011620D01*
X029093Y011556D01*
X039512Y020184D02*
X039000Y020184D01*
X039000Y020120D02*
X039000Y020248D01*
X039512Y020120D02*
X039512Y020248D01*
X039512Y020376D02*
X039192Y020376D01*
X039256Y020376D02*
X039192Y020440D01*
X039192Y020632D01*
X039256Y020696D01*
X039512Y020696D01*
X039000Y021335D02*
X039512Y021335D01*
X039512Y021719D01*
X039192Y021911D02*
X039192Y022103D01*
X039256Y022167D01*
X039512Y022167D01*
X039448Y022167D02*
X039512Y022103D01*
X039512Y021911D01*
X039448Y021847D01*
X039384Y021847D01*
X039320Y021911D01*
X039320Y022103D01*
X039384Y022167D01*
X039448Y022295D02*
X039512Y022359D01*
X039512Y022551D01*
X039448Y022615D01*
X039416Y022615D01*
X039352Y022551D01*
X039352Y022359D01*
X039288Y022295D01*
X039256Y022295D01*
X039192Y022359D01*
X039192Y022551D01*
X039256Y022615D01*
X039448Y023063D02*
X039512Y022999D01*
X039512Y022807D01*
X039448Y022743D01*
X039256Y022743D01*
X039192Y022807D01*
X039192Y022999D01*
X039256Y023063D01*
X039352Y023063D01*
X039352Y022743D01*
X039512Y023191D02*
X039192Y023191D01*
X039256Y023191D02*
X039192Y023255D01*
X039192Y023319D01*
X039256Y023382D01*
X039512Y014690D02*
X039512Y014434D01*
X039448Y014370D01*
X039064Y014370D01*
X039000Y014434D01*
X039000Y014690D01*
X039064Y014754D01*
X039448Y014754D01*
X039512Y014690D01*
X039192Y014882D02*
X039448Y014882D01*
X039512Y014946D01*
X039512Y015138D01*
X039448Y015202D01*
X039192Y015202D02*
X039512Y015202D01*
X039000Y015330D02*
X039448Y015330D01*
X039512Y015394D01*
X039512Y015522D01*
X039448Y015585D01*
X039192Y015330D02*
X039192Y015458D01*
X038256Y022620D02*
X038256Y023004D01*
X038448Y021370D02*
X038512Y021434D01*
X038512Y021690D01*
X038448Y021754D01*
X038320Y021754D01*
X038256Y021690D01*
X038256Y021434D01*
X038192Y021370D01*
X038064Y021370D01*
X038000Y021434D01*
X038000Y021690D01*
X038064Y021754D01*
X038064Y020562D02*
X038448Y020562D01*
X038256Y020370D02*
X038256Y020754D01*
X038256Y016870D02*
X038256Y017254D01*
X038448Y015870D02*
X038512Y015934D01*
X038512Y016190D01*
X038448Y016254D01*
X038320Y016254D01*
X038256Y016190D01*
X038256Y015934D01*
X038192Y015870D01*
X038064Y015870D01*
X038000Y015934D01*
X038000Y016190D01*
X038064Y016254D01*
X038064Y015062D02*
X038448Y015062D01*
X038256Y014870D02*
X038256Y015254D01*
X039000Y016120D02*
X039512Y016120D01*
X039512Y016504D01*
X039192Y016696D02*
X039192Y016888D01*
X039256Y016952D01*
X039512Y016952D01*
X039448Y016952D02*
X039512Y016888D01*
X039512Y016696D01*
X039448Y016632D01*
X039384Y016632D01*
X039320Y016696D01*
X039320Y016888D01*
X039384Y016952D01*
X039448Y017080D02*
X039512Y017144D01*
X039512Y017335D01*
X039448Y017399D01*
X039416Y017399D01*
X039352Y017335D01*
X039352Y017144D01*
X039288Y017080D01*
X039256Y017080D01*
X039192Y017144D01*
X039192Y017335D01*
X039256Y017399D01*
X039448Y017847D02*
X039512Y017783D01*
X039512Y017591D01*
X039448Y017527D01*
X039256Y017527D01*
X039192Y017591D01*
X039192Y017783D01*
X039256Y017847D01*
X039352Y017847D01*
X039352Y017527D01*
X039512Y017975D02*
X039192Y017975D01*
X039256Y017975D02*
X039192Y018039D01*
X039192Y018103D01*
X039256Y018167D01*
X010384Y008172D02*
X010320Y008108D01*
X010064Y008108D01*
X010000Y008172D01*
X010000Y008556D01*
X010064Y008620D01*
X010320Y008620D01*
X010384Y008556D01*
X010512Y008108D02*
X010512Y008620D01*
X010512Y008556D02*
X010896Y008172D01*
X010896Y008108D02*
X010896Y008620D01*
X011407Y008172D02*
X011343Y008108D01*
X011087Y008108D01*
X011023Y008172D01*
X011023Y008556D01*
X011087Y008620D01*
X011343Y008620D01*
X011407Y008556D01*
X012047Y008620D02*
X012047Y008172D01*
X012111Y008108D01*
X012239Y008108D01*
X012303Y008172D01*
X012047Y008428D02*
X012175Y008428D01*
X012495Y008108D02*
X012431Y008172D01*
X012431Y008364D01*
X012495Y008428D01*
X012687Y008428D01*
X012751Y008364D01*
X012751Y008172D01*
X012687Y008108D01*
X012495Y008108D01*
X012943Y008108D02*
X012879Y008172D01*
X012879Y008364D01*
X012943Y008428D01*
X013134Y008428D01*
X013198Y008364D01*
X013198Y008172D01*
X013134Y008108D01*
X012943Y008108D01*
X013326Y008108D02*
X013454Y008108D01*
X013390Y008108D02*
X013390Y008620D01*
X013326Y008620D01*
X014158Y008172D02*
X014222Y008108D01*
X014478Y008108D01*
X014542Y008172D01*
X014542Y008300D01*
X014478Y008364D01*
X014222Y008364D01*
X014158Y008428D01*
X014158Y008556D01*
X014222Y008620D01*
X014478Y008620D01*
X014542Y008556D01*
X014670Y008428D02*
X014670Y008172D01*
X014734Y008108D01*
X014798Y008108D01*
X014862Y008172D01*
X014862Y008364D01*
X014862Y008172D02*
X014926Y008108D01*
X014990Y008108D01*
X015054Y008172D01*
X015054Y008428D01*
X015181Y008108D02*
X015181Y008364D01*
X015181Y008428D02*
X015181Y008460D01*
X015309Y008620D02*
X015309Y008172D01*
X015373Y008108D01*
X015501Y008108D01*
X015565Y008172D01*
X015309Y008428D02*
X015437Y008428D01*
X016013Y008172D02*
X015949Y008108D01*
X015757Y008108D01*
X015693Y008172D01*
X015693Y008364D01*
X015757Y008428D01*
X015949Y008428D01*
X016013Y008364D01*
X016141Y008620D02*
X016141Y008108D01*
X016141Y008364D02*
X016205Y008428D01*
X016397Y008428D01*
X016461Y008364D01*
X016461Y008108D01*
X016909Y008172D02*
X016845Y008108D01*
X016653Y008108D01*
X016589Y008172D01*
X016589Y008364D01*
X016653Y008428D01*
X016845Y008428D01*
X016909Y008364D01*
X016909Y008268D01*
X016589Y008268D01*
X017037Y008108D02*
X017037Y008428D01*
X017037Y008364D02*
X017101Y008428D01*
X017164Y008428D01*
X017228Y008364D01*
X017868Y008428D02*
X017868Y008236D01*
X017996Y008108D01*
X018060Y008108D01*
X018188Y008236D01*
X018188Y008428D01*
X018316Y008108D02*
X018444Y008108D01*
X018380Y008108D02*
X018380Y008620D01*
X018316Y008556D01*
X018572Y008108D02*
X018604Y008108D01*
X018604Y008140D01*
X018572Y008140D01*
X018572Y008108D01*
X018956Y008108D02*
X018892Y008172D01*
X018892Y008556D01*
X018956Y008620D01*
X019211Y008620D01*
X019275Y008556D01*
X019275Y008172D01*
X019211Y008108D01*
X018956Y008108D01*
X018892Y008172D02*
X019275Y008556D01*
X019915Y008108D02*
X019915Y008620D01*
X019915Y008364D02*
X019979Y008428D01*
X020171Y008428D01*
X020235Y008364D01*
X020235Y008172D01*
X020171Y008108D01*
X019979Y008108D01*
X019915Y008172D01*
X020395Y007916D02*
X020619Y007916D01*
X020683Y007980D01*
X020683Y008428D01*
X020683Y008172D02*
X020619Y008108D01*
X020427Y008108D01*
X020363Y008172D01*
X020363Y008428D01*
X021322Y008108D02*
X021322Y008620D01*
X021706Y008620D01*
X021706Y008364D02*
X021322Y008364D01*
X021834Y008108D02*
X021834Y008364D01*
X021834Y008428D02*
X021834Y008460D01*
X022282Y008172D02*
X022218Y008108D01*
X022026Y008108D01*
X021962Y008172D01*
X021962Y008364D01*
X022026Y008428D01*
X022218Y008428D01*
X022282Y008364D01*
X022410Y008620D02*
X022410Y008108D01*
X022410Y008364D02*
X022474Y008428D01*
X022666Y008428D01*
X022730Y008364D01*
X022730Y008108D01*
X023178Y008172D02*
X023114Y008108D01*
X022922Y008108D01*
X022858Y008172D01*
X022858Y008364D01*
X022922Y008428D01*
X023114Y008428D01*
X023178Y008364D01*
X023178Y008268D01*
X022858Y008268D01*
X023305Y008620D02*
X023305Y008172D01*
X023369Y008108D01*
X023497Y008108D01*
X023561Y008172D01*
X023305Y008428D02*
X023433Y008428D01*
X024201Y008620D02*
X024201Y008300D01*
X024393Y008108D01*
X024585Y008300D01*
X024585Y008620D01*
X024713Y008108D02*
X024745Y008108D01*
X024745Y008140D01*
X024713Y008140D01*
X024713Y008108D01*
X008134Y023870D02*
X007750Y023870D01*
X007750Y023614D01*
X008070Y023614D01*
X008134Y023550D01*
X008134Y023422D01*
X008070Y023358D01*
X007814Y023358D01*
X007750Y023422D01*
X008262Y023870D02*
X008262Y023550D01*
X008454Y023358D01*
X008646Y023550D01*
X008646Y023870D01*
X007750Y022870D02*
X007750Y022550D01*
X007942Y022358D01*
X008134Y022550D01*
X008134Y022870D01*
X008262Y022166D02*
X008262Y022678D01*
X008262Y022614D02*
X008326Y022678D01*
X008518Y022678D01*
X008582Y022614D01*
X008582Y022422D01*
X008518Y022358D01*
X008326Y022358D01*
X008262Y022422D01*
X007750Y021358D02*
X007750Y021870D01*
X008070Y021870D01*
X008134Y021806D01*
X008134Y021422D01*
X008070Y021358D01*
X007750Y021358D01*
X008454Y021358D02*
X008454Y021870D01*
X008262Y021870D02*
X008646Y021870D01*
X008134Y020422D02*
X008070Y020358D01*
X007814Y020358D01*
X007750Y020422D01*
X007750Y020806D01*
X007814Y020870D01*
X008070Y020870D01*
X008134Y020806D01*
X008262Y020358D02*
X008262Y020870D01*
X008262Y020486D02*
X008646Y020870D01*
X008390Y020614D02*
X008646Y020358D01*
X008000Y019614D02*
X008384Y019614D01*
X008250Y024358D02*
X008250Y024870D01*
X008570Y024870D01*
X008634Y024806D01*
X008634Y024678D01*
X008570Y024614D01*
X008250Y024614D01*
X009018Y024550D02*
X009146Y024550D01*
X009146Y024422D01*
X009082Y024358D01*
X008826Y024358D01*
X008762Y024422D01*
X008762Y024806D01*
X008826Y024870D01*
X009082Y024870D01*
X009146Y024806D01*
X009273Y024358D02*
X009273Y024870D01*
X009465Y024678D01*
X009657Y024870D01*
X009657Y024358D01*
X027250Y006858D02*
X027250Y007178D01*
X027442Y007370D01*
X027634Y007178D01*
X027634Y006858D01*
X027250Y007050D02*
X027634Y007050D01*
X029250Y006858D02*
X029250Y007370D01*
X029570Y007370D01*
X029634Y007306D01*
X029634Y007210D01*
X029570Y007146D01*
X029250Y007146D01*
X029570Y007146D02*
X029634Y007082D01*
X029634Y006922D01*
X029570Y006858D01*
X029250Y006858D01*
X035250Y006858D02*
X035250Y007370D01*
X035570Y007370D01*
X035634Y007306D01*
X035634Y007210D01*
X035570Y007146D01*
X035250Y007146D01*
X035570Y007146D02*
X035634Y007082D01*
X035634Y006922D01*
X035570Y006858D01*
X035250Y006858D01*
X033250Y006858D02*
X033250Y007178D01*
X033442Y007370D01*
X033634Y007178D01*
X033634Y006858D01*
X033250Y007050D02*
X033634Y007050D01*
G54D11*
X012126Y030057D02*
X012874Y030057D01*
X012874Y029931D01*
X012126Y029931D01*
X012126Y030057D01*
X012126Y030183D02*
X012874Y030183D01*
X012874Y030309D01*
X012126Y030309D01*
X012126Y030183D01*
X012500Y029931D02*
X012500Y029120D01*
X012500Y030309D02*
X012500Y031120D01*
X014500Y030120D02*
X014500Y030120D01*
X014484Y030400D01*
X014421Y030675D01*
X014327Y030931D01*
X014197Y031183D01*
X014031Y031407D01*
X013835Y031604D01*
X013618Y031778D01*
X013374Y031915D01*
X013118Y032026D01*
X012843Y032089D01*
X012571Y032120D01*
X012287Y032112D01*
X012016Y032057D01*
X011748Y031970D01*
X011500Y031856D01*
X011264Y031699D01*
X011063Y031510D01*
X010882Y031293D01*
X010736Y031057D01*
X010618Y030801D01*
X010547Y030533D01*
X010508Y030262D01*
X010508Y029978D01*
X010547Y029699D01*
X010626Y029431D01*
X010736Y029175D01*
X010882Y028939D01*
X011063Y028730D01*
X011272Y028541D01*
X011500Y028384D01*
X011756Y028262D01*
X012024Y028175D01*
X012295Y028128D01*
X012571Y028120D01*
X012850Y028152D01*
X013126Y028222D01*
X013382Y028325D01*
X013626Y028463D01*
X013843Y028636D01*
X014031Y028841D01*
X014197Y029065D01*
X014327Y029309D01*
X014421Y029573D01*
X014484Y029848D01*
X014500Y030128D01*
X011811Y028868D02*
X012189Y028868D01*
X012000Y028683D02*
X012000Y029057D01*
X019874Y030120D02*
X020126Y030120D01*
X020000Y029994D02*
X020000Y030246D01*
X020500Y030620D02*
X020500Y030620D01*
X020469Y030876D01*
X020366Y031120D01*
X020205Y031333D01*
X020000Y031486D01*
X019756Y031589D01*
X019500Y031620D01*
X019244Y031589D01*
X019000Y031486D01*
X018787Y031325D01*
X018634Y031120D01*
X018531Y030876D01*
X018500Y030620D01*
X018531Y030364D01*
X018634Y030120D01*
X018795Y029907D01*
X019000Y029754D01*
X019244Y029652D01*
X019500Y029620D01*
X019756Y029652D01*
X020000Y029754D01*
X020213Y029915D01*
X020366Y030120D01*
X020469Y030364D01*
X020500Y030620D01*
X019126Y030557D02*
X019874Y030557D01*
X019874Y030431D01*
X019126Y030431D01*
X019126Y030557D01*
X019126Y030683D02*
X019874Y030683D01*
X019874Y030809D01*
X019126Y030809D01*
X019126Y030683D01*
X019500Y030809D02*
X019500Y031120D01*
X019500Y030431D02*
X019500Y030120D01*
X031374Y024120D02*
X031626Y024120D01*
X031500Y023994D02*
X031500Y024246D01*
X032000Y024620D02*
X032000Y024620D01*
X031969Y024876D01*
X031866Y025120D01*
X031705Y025333D01*
X031500Y025486D01*
X031256Y025589D01*
X031000Y025620D01*
X030744Y025589D01*
X030500Y025486D01*
X030287Y025325D01*
X030134Y025120D01*
X030031Y024876D01*
X030000Y024620D01*
X030031Y024364D01*
X030134Y024120D01*
X030295Y023907D01*
X030500Y023754D01*
X030744Y023652D01*
X031000Y023620D01*
X031256Y023652D01*
X031500Y023754D01*
X031713Y023915D01*
X031866Y024120D01*
X031969Y024364D01*
X032000Y024620D01*
X030626Y024557D02*
X031374Y024557D01*
X031374Y024431D01*
X030626Y024431D01*
X030626Y024557D01*
X030626Y024683D02*
X031374Y024683D01*
X031374Y024809D01*
X030626Y024809D01*
X030626Y024683D01*
X031000Y024809D02*
X031000Y025120D01*
X031000Y024431D02*
X031000Y024120D01*
X039000Y028308D02*
X035000Y028308D01*
X039000Y028308D02*
X039000Y031870D01*
X035000Y031870D01*
X035000Y028308D01*
X035250Y030620D02*
X035250Y029558D01*
X035250Y030620D02*
X035000Y030620D01*
X035250Y029558D02*
X035000Y029558D01*
X039000Y024308D02*
X035000Y024308D01*
X039000Y024308D02*
X039000Y027870D01*
X035000Y027870D01*
X035000Y024308D01*
X035250Y026620D02*
X035250Y025558D01*
X035250Y026620D02*
X035000Y026620D01*
X035250Y025558D02*
X035000Y025558D01*
X036484Y007746D02*
X032547Y007746D01*
X032547Y010699D01*
X036484Y010699D01*
X036484Y007746D01*
X036484Y007963D02*
X032547Y007963D01*
X030484Y007746D02*
X026547Y007746D01*
X026547Y010699D01*
X030484Y010699D01*
X030484Y007746D01*
X030484Y007963D02*
X026547Y007963D01*
X035500Y023620D02*
X037750Y023620D01*
X035500Y022745D02*
X035500Y023620D01*
X035500Y022495D02*
X035500Y020745D01*
X035500Y020495D02*
X035500Y019620D01*
X037750Y019620D01*
X037750Y023620D01*
X035500Y018120D02*
X037750Y018120D01*
X035500Y017245D02*
X035500Y018120D01*
X035500Y016995D02*
X035500Y015245D01*
X035500Y014995D02*
X035500Y014120D01*
X037750Y014120D01*
X037750Y018120D01*
X009000Y019120D02*
X009000Y024120D01*
X010000Y024120D01*
X010000Y019120D01*
X009000Y019120D01*
X009000Y020120D02*
X010000Y020120D01*
X023374Y026120D02*
X023374Y031238D01*
X034787Y031238D01*
X034787Y026120D01*
X023374Y026120D01*
X023374Y012120D02*
X023374Y017238D01*
X034787Y017238D01*
X034787Y012120D01*
X023374Y012120D01*
X023374Y018120D02*
X023374Y023238D01*
X034787Y023238D01*
X034787Y018120D01*
X023374Y018120D01*
X012500Y022368D02*
X021500Y022368D01*
X021500Y019872D01*
X012500Y019872D01*
X012500Y020868D01*
X012874Y020868D01*
X012874Y021368D01*
X012500Y021368D01*
X012500Y022368D01*
X017000Y025620D02*
X017000Y025620D01*
X014744Y025589D01*
X014500Y025486D01*
X014287Y025325D01*
X014134Y025120D01*
X014031Y024876D01*
X014000Y024620D01*
X014031Y024364D01*
X014134Y024120D01*
X014295Y023907D01*
X014500Y023754D01*
X014744Y023652D01*
X017000Y023620D01*
X017256Y023652D01*
X017500Y023754D01*
X017713Y023915D01*
X017866Y024120D01*
X017969Y024364D01*
X018000Y024620D01*
X017969Y024876D01*
X017866Y025120D01*
X017705Y025333D01*
X017500Y025486D01*
X017256Y025589D01*
X017000Y025620D01*
X014295Y027776D02*
X014246Y027726D01*
X014049Y027726D01*
X014000Y027776D01*
X014000Y028071D01*
X014049Y028120D01*
X014246Y028120D01*
X014295Y028071D01*
X014394Y027726D02*
X014492Y027726D01*
X014443Y027726D02*
X014443Y028120D01*
X014394Y028071D01*
X020545Y029276D02*
X020496Y029226D01*
X020299Y029226D01*
X020250Y029276D01*
X020250Y029571D01*
X020299Y029620D01*
X020496Y029620D01*
X020545Y029571D01*
X020890Y029226D02*
X020890Y029620D01*
X020791Y029620D01*
X020644Y029472D01*
X020644Y029374D01*
X020939Y029374D01*
X032545Y024526D02*
X032496Y024476D01*
X032299Y024476D01*
X032250Y024526D01*
X032250Y024821D01*
X032299Y024870D01*
X032496Y024870D01*
X032545Y024821D01*
X032644Y024821D02*
X032644Y024870D01*
X032939Y024870D01*
X032939Y024772D01*
X032742Y024575D01*
X032742Y024476D01*
X036750Y029075D02*
X036750Y029026D01*
X036799Y028976D01*
X036996Y028976D01*
X037045Y029026D01*
X037045Y029370D01*
X036947Y029370D01*
X037144Y028976D02*
X037242Y028976D01*
X037193Y028976D02*
X037193Y029370D01*
X037144Y029321D01*
X036750Y025075D02*
X036750Y025026D01*
X036799Y024976D01*
X036996Y024976D01*
X037045Y025026D01*
X037045Y025370D01*
X036947Y025370D01*
X037439Y024976D02*
X037144Y024976D01*
X037144Y025075D01*
X037242Y025173D01*
X037390Y025173D01*
X037439Y025222D01*
X037439Y025321D01*
X037390Y025370D01*
X037193Y025370D01*
X037144Y025321D01*
X031500Y009325D02*
X031500Y009276D01*
X031549Y009226D01*
X031746Y009226D01*
X031795Y009276D01*
X031795Y009620D01*
X031697Y009620D01*
X031894Y009571D02*
X031943Y009620D01*
X032140Y009620D01*
X032189Y009571D01*
X032189Y009472D01*
X032140Y009423D01*
X031992Y009423D01*
X032140Y009423D02*
X032189Y009374D01*
X032189Y009276D01*
X032140Y009226D01*
X031943Y009226D01*
X031894Y009276D01*
X025500Y009325D02*
X025500Y009276D01*
X025549Y009226D01*
X025746Y009226D01*
X025795Y009276D01*
X025795Y009620D01*
X025697Y009620D01*
X026140Y009226D02*
X026140Y009620D01*
X026041Y009620D01*
X025894Y009472D01*
X025894Y009374D01*
X026189Y009374D01*
X036250Y019325D02*
X036250Y019276D01*
X036299Y019226D01*
X036496Y019226D01*
X036545Y019276D01*
X036545Y019620D01*
X036447Y019620D01*
X036939Y019620D02*
X036644Y019620D01*
X036644Y019423D01*
X036890Y019423D01*
X036939Y019374D01*
X036939Y019276D01*
X036890Y019226D01*
X036693Y019226D01*
X036644Y019276D01*
X036250Y018325D02*
X036250Y018276D01*
X036299Y018226D01*
X036496Y018226D01*
X036545Y018276D01*
X036545Y018620D01*
X036447Y018620D01*
X036890Y018620D02*
X036742Y018620D01*
X036644Y018522D01*
X036644Y018276D01*
X036693Y018226D01*
X036890Y018226D01*
X036939Y018276D01*
X036939Y018374D01*
X036890Y018423D01*
X036644Y018423D01*
X009250Y018575D02*
X009250Y018526D01*
X009299Y018476D01*
X009496Y018476D01*
X009545Y018526D01*
X009545Y018870D01*
X009447Y018870D01*
X009644Y018821D02*
X009644Y018870D01*
X009939Y018870D01*
X009939Y018772D01*
X009742Y018575D01*
X009742Y018476D01*
X032250Y026120D02*
X032250Y025726D01*
X032545Y025726D01*
X032644Y025776D02*
X032693Y025726D01*
X032890Y025726D01*
X032939Y025776D01*
X032939Y025874D01*
X032890Y025923D01*
X032693Y025923D01*
X032644Y025972D01*
X032644Y026071D01*
X032693Y026120D01*
X032890Y026120D01*
X032939Y026071D01*
X033037Y025726D02*
X033136Y025726D01*
X033086Y025726D02*
X033086Y026120D01*
X033037Y026071D01*
X032250Y012120D02*
X032250Y011726D01*
X032545Y011726D01*
X032644Y011776D02*
X032693Y011726D01*
X032890Y011726D01*
X032939Y011776D01*
X032939Y011874D01*
X032890Y011923D01*
X032693Y011923D01*
X032644Y011972D01*
X032644Y012071D01*
X032693Y012120D01*
X032890Y012120D01*
X032939Y012071D01*
X033333Y011726D02*
X033037Y011726D01*
X033037Y011825D01*
X033136Y011923D01*
X033283Y011923D01*
X033333Y011972D01*
X033333Y012071D01*
X033283Y012120D01*
X033086Y012120D01*
X033037Y012071D01*
X032250Y018120D02*
X032250Y017726D01*
X032545Y017726D01*
X032644Y017776D02*
X032693Y017726D01*
X032890Y017726D01*
X032939Y017776D01*
X032939Y017874D01*
X032890Y017923D01*
X032693Y017923D01*
X032644Y017972D01*
X032644Y018071D01*
X032693Y018120D01*
X032890Y018120D01*
X032939Y018071D01*
X033037Y018071D02*
X033086Y018120D01*
X033283Y018120D01*
X033333Y018071D01*
X033333Y017972D01*
X033283Y017923D01*
X033136Y017923D01*
X033283Y017923D02*
X033333Y017874D01*
X033333Y017776D01*
X033283Y017726D01*
X033086Y017726D01*
X033037Y017776D01*
X021750Y021870D02*
X021750Y021526D01*
X021799Y021476D01*
X021996Y021476D01*
X022045Y021526D01*
X022045Y021870D02*
X022045Y021476D01*
X022439Y021476D02*
X022144Y021476D01*
X022144Y021575D01*
X022242Y021673D01*
X022390Y021673D01*
X022439Y021722D01*
X022439Y021821D01*
X022390Y021870D01*
X022193Y021870D01*
X022144Y021821D01*
X018250Y024870D02*
X018250Y024821D01*
X018398Y024673D01*
X018545Y024821D01*
X018545Y024870D01*
X018398Y024673D02*
X018398Y024476D01*
X018644Y024476D02*
X018742Y024476D01*
X018693Y024476D02*
X018693Y024870D01*
X018644Y024821D01*
X-004750Y034476D02*
X-004750Y034870D01*
X-004504Y034870D01*
X-004455Y034821D01*
X-004455Y034722D01*
X-004504Y034673D01*
X-004750Y034673D01*
X-004652Y034673D02*
X-004455Y034476D01*
X-004356Y034476D02*
X-004356Y034870D01*
X-004110Y034870D01*
X-004061Y034821D01*
X-004061Y034722D01*
X-004110Y034673D01*
X-004356Y034673D01*
X-003963Y034476D02*
X-003864Y034476D01*
X-003914Y034476D02*
X-003914Y034870D01*
X-003963Y034821D01*
X-003500Y031226D02*
X-003500Y031620D01*
X-003254Y031620D01*
X-003205Y031571D01*
X-003205Y031472D01*
X-003254Y031423D01*
X-003500Y031423D01*
X-003402Y031423D02*
X-003205Y031226D01*
X-003106Y031226D02*
X-003106Y031620D01*
X-002860Y031620D01*
X-002811Y031571D01*
X-002811Y031472D01*
X-002860Y031423D01*
X-003106Y031423D01*
X-002417Y031226D02*
X-002713Y031226D01*
X-002713Y031325D01*
X-002614Y031423D01*
X-002467Y031423D01*
X-002417Y031472D01*
X-002417Y031571D01*
X-002467Y031620D01*
X-002664Y031620D01*
X-002713Y031571D01*
X-005250Y021226D02*
X-005250Y021620D01*
X-005004Y021620D01*
X-004955Y021571D01*
X-004955Y021472D01*
X-005004Y021423D01*
X-005250Y021423D01*
X-005152Y021423D02*
X-004955Y021226D01*
X-004856Y021226D02*
X-004856Y021620D01*
X-004610Y021620D01*
X-004561Y021571D01*
X-004561Y021472D01*
X-004610Y021423D01*
X-004856Y021423D01*
X-004463Y021571D02*
X-004414Y021620D01*
X-004217Y021620D01*
X-004167Y021571D01*
X-004167Y021472D01*
X-004217Y021423D01*
X-004364Y021423D01*
X-004217Y021423D02*
X-004167Y021374D01*
X-004167Y021276D01*
X-004217Y021226D01*
X-004414Y021226D01*
X-004463Y021276D01*
X-004250Y011476D02*
X-004250Y011870D01*
X-004004Y011870D01*
X-003955Y011821D01*
X-003955Y011722D01*
X-004004Y011673D01*
X-004250Y011673D01*
X-004152Y011673D02*
X-003955Y011476D01*
X-003856Y011476D02*
X-003856Y011870D01*
X-003610Y011870D01*
X-003561Y011821D01*
X-003561Y011722D01*
X-003610Y011673D01*
X-003856Y011673D01*
X-003217Y011476D02*
X-003217Y011870D01*
X-003315Y011870D01*
X-003463Y011722D01*
X-003463Y011624D01*
X-003167Y011624D01*
G54D12*
X004000Y035370D02*
X006000Y035370D01*
X005000Y034370D02*
X005000Y036370D01*
X041000Y035370D02*
X043000Y035370D01*
X042000Y034370D02*
X042000Y036370D01*
X041000Y004620D02*
X043000Y004620D01*
X042000Y003620D02*
X042000Y005620D01*
X004000Y004620D02*
X006000Y004620D01*
X005000Y003620D02*
X005000Y005620D01*
M02*
